SplineFontDB: 3.2
FontName: Square-Regular
FullName: Square Regular
FamilyName: Square Regular
Weight: Regular
Copyright: Copyright (c) 2020, retr0
UComments: "2020-10-21: Created with FontForge (http://fontforge.org)"
Version: 001.000
ItalicAngle: 0
UnderlinePosition: -100
UnderlineWidth: 50
Ascent: 800
Descent: 200
InvalidEm: 0
LayerCount: 2
Layer: 0 0 "Back" 1
Layer: 1 0 "Fore" 1
XUID: [1021 774 -246617221 31412]
StyleMap: 0x0000
FSType: 0
OS2Version: 0
OS2_WeightWidthSlopeOnly: 0
OS2_UseTypoMetrics: 1
CreationTime: 1603300061
ModificationTime: 1605718269
PfmFamily: 17
TTFWeight: 400
TTFWidth: 5
LineGap: 90
VLineGap: 0
OS2TypoAscent: 0
OS2TypoAOffset: 1
OS2TypoDescent: 0
OS2TypoDOffset: 1
OS2TypoLinegap: 90
OS2WinAscent: 0
OS2WinAOffset: 1
OS2WinDescent: 0
OS2WinDOffset: 1
HheadAscent: 0
HheadAOffset: 1
HheadDescent: 0
HheadDOffset: 1
OS2Vendor: 'PfEd'
Lookup: 258 0 0 "j" { "before j symbols 2" [150,15,2] "before j uppercase" [150,15,2] "before j lowercase" [150,15,2] "before j symbols 1" [150,15,2] } ['kern' ('DFLT' <'dflt' > 'latn' <'dflt' > ) ]
Lookup: 258 0 0 "eth" { "eth after symbols 2" [150,15,2] "eth after symbols 1" [150,15,2] "eth after lowercase" [150,15,2] "eth after uppercase" [150,15,2] } ['kern' ('DFLT' <'dflt' > 'latn' <'dflt' > ) ]
Lookup: 258 0 0 "V" { "before V symbols 2" [150,15,2] "after V symbols 2" [150,15,2] "before V symbols" [150,15,2] "V after symbols" [150,15,2] "before V lowercase" [150,15,2] "V after lowercase" [150,15,6] } ['kern' ('DFLT' <'dflt' > 'latn' <'dflt' > ) ]
MarkAttachClasses: 1
MarkAttachSets: 1
"" 0 
DEI: 91125
LangName: 1033 "" "" "" "" "" "" "" "" "" "" "" "" "" "" "" "" "Square"
Encoding: ISO8859-1
UnicodeInterp: none
NameList: AGL For New Fonts
DisplaySize: -48
AntiAlias: 1
FitToEm: 0
WinInfo: 0 39 14
BeginPrivate: 0
EndPrivate
TeXData: 1 0 0 209715 104857 69905 419430 1048576 69905 783286 444596 497025 792723 393216 433062 380633 303038 157286 324010 404750 52429 2506097 1059062 262144
BeginChars: 256 190

StartChar: A
Encoding: 65 65 0
Width: 500
Flags: MW
LayerCount: 2
Fore
SplineSet
125 325 m 1
 125 0 l 1
 50 0 l 1
 50 600 l 1
 450 600 l 1
 450 0 l 1
 375 0 l 1
 375 325 l 1
 125 325 l 1
125 525 m 1
 125 400 l 1
 375 400 l 1
 375 525 l 1
 125 525 l 1
EndSplineSet
Validated: 1
EndChar

StartChar: B
Encoding: 66 66 1
Width: 500
Flags: MW
LayerCount: 2
Fore
SplineSet
375 0 m 1
 50 0 l 1
 50 600 l 1
 325 600 l 1
 325 400 l 1
 450 400 l 1
 450 0 l 1
 375 0 l 1
125 525 m 1
 125 400 l 1
 250 400 l 1
 250 525 l 1
 125 525 l 1
125 325 m 1
 125 75 l 1
 375 75 l 1
 375 325 l 1
 125 325 l 1
EndSplineSet
Validated: 1
EndChar

StartChar: C
Encoding: 67 67 2
Width: 500
Flags: MW
LayerCount: 2
Fore
SplineSet
50 600 m 1
 125 600 l 1
 450 600 l 1
 450 525 l 1
 125 525 l 1
 125 75 l 1
 450 75 l 1
 450 0 l 1
 125 0 l 1
 50 0 l 1
 50 75 l 1
 50 525 l 1
 50 600 l 1
EndSplineSet
Validated: 1
EndChar

StartChar: D
Encoding: 68 68 3
Width: 600
Flags: MW
LayerCount: 2
Fore
SplineSet
237.5 600 m 1
 550 600 l 1
 550 0 l 1
 50 0 l 1
 50 75 l 1
 162.5 75 l 1
 162.5 525 l 1
 50 525 l 1
 50 600 l 1
 237.5 600 l 1
475 75 m 1
 475 525 l 1
 237.5 525 l 1
 237.5 75 l 1
 475 75 l 1
EndSplineSet
Validated: 1
EndChar

StartChar: E
Encoding: 69 69 4
Width: 500
Flags: MW
LayerCount: 2
Fore
SplineSet
450 0 m 1
 125 0 l 1
 50 0 l 1
 50 75 l 1
 50 325 l 1
 50 400 l 1
 50 525 l 1
 50 600 l 1
 125 600 l 1
 450 600 l 1
 450 525 l 1
 125 525 l 1
 125 400 l 1
 450 400 l 1
 450 325 l 1
 125 325 l 1
 125 75 l 1
 450 75 l 1
 450 0 l 1
EndSplineSet
Validated: 1
EndChar

StartChar: F
Encoding: 70 70 5
Width: 500
Flags: MW
LayerCount: 2
Fore
SplineSet
50.705078125 600 m 1
 124.294921875 600 l 1
 450.705078125 600 l 1
 450.705078125 525 l 1
 124.294921875 525 l 1
 124.294921875 400 l 1
 450.705078125 400 l 1
 450.705078125 325 l 1
 124.294921875 325 l 1
 124.294921875 0 l 1
 49.294921875 0 l 1
 49.294921875 600 l 1
 50.705078125 600 l 1
EndSplineSet
Validated: 1
EndChar

StartChar: G
Encoding: 71 71 6
Width: 500
Flags: MW
LayerCount: 2
Fore
SplineSet
375 0 m 1
 125 0 l 1
 50 0 l 1
 50 75 l 1
 50 525 l 1
 50 600 l 1
 125 600 l 1
 450 600 l 1
 450 525 l 1
 125 525 l 1
 125 75 l 1
 375 75 l 1
 375 325 l 1
 250 325 l 1
 250 400 l 1
 375 400 l 1
 450 400 l 1
 450 325 l 1
 450 75 l 1
 450 0 l 1
 375 0 l 1
EndSplineSet
Validated: 1
EndChar

StartChar: H
Encoding: 72 72 7
Width: 500
Flags: MW
LayerCount: 2
Fore
SplineSet
375 600 m 1
 450 600 l 1
 450 400 l 1
 450 325 l 1
 450 0 l 1
 375 0 l 1
 375 325 l 1
 125 325 l 1
 125 0 l 1
 50 0 l 1
 50 325 l 1
 50 400 l 1
 50 600 l 1
 125 600 l 1
 125 400 l 1
 375 400 l 1
 375 600 l 1
EndSplineSet
Validated: 1
EndChar

StartChar: I
Encoding: 73 73 8
Width: 400
Flags: MW
LayerCount: 2
Fore
SplineSet
350 525 m 1
 237.5 525 l 1
 237.5 75 l 1
 350 75 l 1
 350 0 l 1
 237.5 0 l 1
 162.5 0 l 1
 50 0 l 1
 50 75 l 1
 162.5 75 l 1
 162.5 525 l 1
 50 525 l 1
 50 600 l 1
 162.5 600 l 1
 237.5 600 l 1
 350 600 l 1
 350 525 l 1
EndSplineSet
Validated: 1
EndChar

StartChar: J
Encoding: 74 74 9
Width: 500
Flags: MW
LayerCount: 2
Fore
SplineSet
450 0 m 1
 375 0 l 1
 50 0 l 1
 50 75 l 1
 50 150 l 1
 125 150 l 1
 125 75 l 1
 375 75 l 1
 375 600 l 1
 450 600 l 1
 450 75 l 1
 450 0 l 1
EndSplineSet
Validated: 1
EndChar

StartChar: K
Encoding: 75 75 10
Width: 500
Flags: MW
LayerCount: 2
Fore
SplineSet
325 400 m 1
 375 400 l 1
 450 400 l 1
 450 325 l 1
 450 0 l 1
 375 0 l 1
 375 325 l 1
 325 325 l 1
 250 325 l 1
 125 325 l 1
 125 0 l 1
 50 0 l 1
 50 325 l 1
 50 400 l 1
 50 600 l 1
 125 600 l 1
 125 400 l 1
 250 400 l 1
 250 600 l 1
 325 600 l 1
 325 400 l 1
EndSplineSet
Validated: 1
EndChar

StartChar: L
Encoding: 76 76 11
Width: 500
Flags: MW
LayerCount: 2
Fore
SplineSet
125 600 m 1
 125 75 l 1
 450 75 l 1
 450 0 l 1
 125 0 l 1
 50 0 l 1
 50 75 l 1
 50 600 l 1
 125 600 l 1
EndSplineSet
Validated: 1
EndChar

StartChar: M
Encoding: 77 77 12
Width: 600
Flags: MW
LayerCount: 2
Fore
SplineSet
337.5 600 m 1
 475 600 l 1
 550 600 l 1
 550 525 l 1
 550 0 l 1
 475 0 l 1
 475 525 l 1
 337.5 525 l 1
 337.5 0 l 1
 262.5 0 l 1
 262.5 525 l 1
 125 525 l 1
 125 0 l 1
 50 0 l 1
 50 525 l 1
 50 600 l 1
 125 600 l 1
 262.5 600 l 1
 337.5 600 l 1
EndSplineSet
Validated: 1
EndChar

StartChar: N
Encoding: 78 78 13
Width: 500
Flags: MW
LayerCount: 2
Fore
SplineSet
374.5546875 400 m 1
 374.5546875 599.780273438 l 1
 449.294921875 599.780273438 l 1
 449.294921875 -0.2197265625 l 1
 374.5546875 -0.2197265625 l 1
 374.5546875 325 l 1
 125.434570312 478.849609375 l 1
 125.434570312 0 l 1
 50.705078125 0 l 1
 50.705078125 525 l 1
 50.705078125 600 l 1
 125.434570312 600 l 1
 125.434570312 553.849609375 l 1
 374.5546875 400 l 1
EndSplineSet
Validated: 1
EndChar

StartChar: O
Encoding: 79 79 14
Width: 500
Flags: MW
LayerCount: 2
Fore
SplineSet
375 0 m 1
 50 0 l 1
 50 600 l 1
 450 600 l 1
 450 0 l 1
 375 0 l 1
125 525 m 1
 125 75 l 1
 375 75 l 1
 375 525 l 1
 125 525 l 1
EndSplineSet
Validated: 1
EndChar

StartChar: P
Encoding: 80 80 15
Width: 500
Flags: MW
LayerCount: 2
Fore
SplineSet
125 600 m 1
 450 600 l 1
 450 325 l 1
 125 325 l 1
 125 0 l 1
 50 0 l 1
 50 600 l 1
 125 600 l 1
375 400 m 1
 375 525 l 1
 125 525 l 1
 125 400 l 1
 375 400 l 1
EndSplineSet
Validated: 1
EndChar

StartChar: Q
Encoding: 81 81 16
Width: 520
Flags: MW
LayerCount: 2
Fore
SplineSet
457 75 m 1
 457 53 l 1
 520 -8.8701171875 l 1
 466 -61.8701171875 l 1
 403 0 l 1
 50 0 l 1
 50 600 l 1
 457 600 l 1
 457 75 l 1
126.400390625 75 m 1
 380.549804688 75 l 1
 380.549804688 525 l 1
 126.400390625 525 l 1
 126.400390625 75 l 1
EndSplineSet
EndChar

StartChar: R
Encoding: 82 82 17
Width: 500
Flags: MW
LayerCount: 2
Fore
SplineSet
125 325 m 1
 125 0 l 1
 50 0 l 1
 50 600 l 1
 325 600 l 1
 325 400 l 1
 450 400 l 1
 450 0 l 1
 375 0 l 1
 375 325 l 1
 125 325 l 1
125 525 m 1
 125 400 l 1
 250 400 l 1
 250 525 l 1
 125 525 l 1
EndSplineSet
Validated: 1
EndChar

StartChar: S
Encoding: 83 83 18
Width: 500
Flags: MW
LayerCount: 2
Fore
SplineSet
50 600 m 1
 125 600 l 1
 450 600 l 1
 450 525 l 1
 125 525 l 1
 125 400 l 1
 375 400 l 1
 450 400 l 1
 450 325 l 1
 450 75 l 1
 450 0 l 1
 375 0 l 1
 50 0 l 1
 50 75 l 1
 375 75 l 1
 375 325 l 1
 125 325 l 1
 50 325 l 1
 50 400 l 1
 50 525 l 1
 50 600 l 1
EndSplineSet
Validated: 1
EndChar

StartChar: T
Encoding: 84 84 19
Width: 500
Flags: MW
LayerCount: 2
Fore
SplineSet
212.5 600 m 1
 287.5 600 l 1
 450 600 l 1
 450 525 l 1
 287.5 525 l 1
 287.5 0 l 1
 212.5 0 l 1
 212.5 525 l 1
 50 525 l 1
 50 600 l 1
 212.5 600 l 1
EndSplineSet
Validated: 1
EndChar

StartChar: U
Encoding: 85 85 20
Width: 500
Flags: MW
LayerCount: 2
Fore
SplineSet
375 75 m 1
 375 600 l 1
 450 600 l 1
 450 75 l 1
 450 0 l 1
 375 0 l 1
 125 0 l 1
 50 0 l 1
 50 75 l 1
 50 600 l 1
 125 600 l 1
 125 75 l 1
 375 75 l 1
EndSplineSet
Validated: 1
EndChar

StartChar: V
Encoding: 86 86 21
Width: 500
Flags: MW
LayerCount: 2
Fore
SplineSet
250 138.459960938 m 1
 375 600 l 1
 450 600 l 1
 287.5 0 l 1
 212.5 0 l 1
 50 600 l 1
 125 600 l 1
 250 138.459960938 l 1
EndSplineSet
Validated: 1
EndChar

StartChar: W
Encoding: 87 87 22
Width: 600
Flags: MW
LayerCount: 2
Fore
SplineSet
475 75 m 1
 475 600 l 1
 550 600 l 1
 550 75 l 1
 550 0 l 1
 475 0 l 1
 337.5 0 l 1
 262.5 0 l 1
 125 0 l 1
 50 0 l 1
 50 75 l 1
 50 600 l 1
 125 600 l 1
 125 75 l 1
 262.5 75 l 1
 262.5 600 l 1
 337.5 600 l 1
 337.5 75 l 1
 475 75 l 1
EndSplineSet
Validated: 1
EndChar

StartChar: X
Encoding: 88 88 23
Width: 500
Flags: MW
LayerCount: 2
Fore
SplineSet
365 600 m 1
 450 600 l 1
 292.5 300 l 1
 450 0 l 1
 365 0 l 1
 250 219.049804688 l 1
 135 0 l 1
 50 0 l 1
 207.5 300 l 1
 50 600 l 1
 135 600 l 1
 250 380.950195312 l 1
 365 600 l 1
EndSplineSet
Validated: 1
EndChar

StartChar: Y
Encoding: 89 89 24
Width: 500
Flags: MW
LayerCount: 2
Fore
SplineSet
375 400 m 1
 375 600 l 1
 450 600 l 1
 450 400 l 1
 450 325 l 1
 375 325 l 1
 287.5 325 l 1
 287.5 0 l 1
 212.5 0 l 1
 212.5 325 l 1
 125 325 l 1
 50 325 l 1
 50 400 l 1
 50 600 l 1
 125 600 l 1
 125 400 l 1
 212.5 400 l 1
 287.5 400 l 1
 375 400 l 1
EndSplineSet
Validated: 1
EndChar

StartChar: Z
Encoding: 90 90 25
Width: 500
Flags: MW
LayerCount: 2
Fore
SplineSet
450 600 m 1
 409.379882812 525 l 1
 165.629882812 75 l 1
 450 75 l 1
 450 0 l 1
 125 0 l 1
 50 0 l 1
 90.6298828125 75 l 1
 334.379882812 525 l 1
 50 525 l 1
 50 600 l 1
 375 600 l 1
 450 600 l 1
EndSplineSet
Validated: 1
EndChar

StartChar: a
Encoding: 97 97 27
Width: 500
Flags: HMW
LayerCount: 2
Fore
SplineSet
50 400 m 1
 450 400 l 1
 450 0 l 1
 50 0 l 1
 50 237.5 l 1
 375 237.5 l 1
 375 325 l 1
 50 325 l 1
 50 400 l 1
375 75 m 1
 375 162.5 l 1
 125 162.5 l 1
 125 75 l 1
 375 75 l 1
EndSplineSet
Validated: 1
EndChar

StartChar: b
Encoding: 98 98 28
Width: 500
Flags: HMW
LayerCount: 2
Fore
SplineSet
375 0 m 1
 50 0 l 1
 50 600 l 1
 125 600 l 1
 125 400 l 1
 450 400 l 1
 450 0 l 1
 375 0 l 1
125 325 m 1
 125 75 l 1
 375 75 l 1
 375 325 l 1
 125 325 l 1
EndSplineSet
Validated: 1
EndChar

StartChar: c
Encoding: 99 99 29
Width: 500
Flags: MW
LayerCount: 2
Fore
SplineSet
50 400 m 1
 125 400 l 1
 450 400 l 1
 450 325 l 1
 125 325 l 1
 125 75 l 1
 450 75 l 1
 450 0 l 1
 125 0 l 1
 50 0 l 1
 50 75 l 1
 50 325 l 1
 50 400 l 1
EndSplineSet
Validated: 1
EndChar

StartChar: d
Encoding: 100 100 30
Width: 500
Flags: MW
LayerCount: 2
Fore
SplineSet
375 600 m 1
 450 600 l 1
 450 0 l 1
 50 0 l 1
 50 400 l 1
 375 400 l 1
 375 600 l 1
375 75 m 1
 375 325 l 1
 125 325 l 1
 125 75 l 1
 375 75 l 1
EndSplineSet
Validated: 1
EndChar

StartChar: e
Encoding: 101 101 31
Width: 500
Flags: MW
LayerCount: 2
Fore
SplineSet
125 400 m 5
 450 400 l 5
 450 162.5 l 5
 125 162.5 l 5
 125 75 l 5
 450 75 l 5
 450 0 l 5
 50 0 l 5
 50 400 l 5
 125 400 l 5
375 237.5 m 5
 375 325 l 5
 125 325 l 5
 125 237.5 l 5
 375 237.5 l 5
EndSplineSet
Validated: 1
EndChar

StartChar: f
Encoding: 102 102 32
Width: 500
Flags: MW
LayerCount: 2
Fore
SplineSet
212.5 600 m 1
 287.5 600 l 1
 450 600 l 1
 450 525 l 1
 287.5 525 l 1
 287.5 400 l 1
 450 400 l 1
 450 325 l 1
 287.5 325 l 1
 287.5 0 l 1
 212.5 0 l 1
 212.5 325 l 1
 50 325 l 1
 50 400 l 1
 212.5 400 l 1
 212.5 525 l 1
 212.5 600 l 1
EndSplineSet
Validated: 1
EndChar

StartChar: g
Encoding: 103 103 33
Width: 500
Flags: MW
LayerCount: 2
Fore
SplineSet
125 400 m 1
 450 400 l 1
 450 -200 l 1
 50 -200 l 1
 50 -125 l 1
 375 -125 l 1
 375 0 l 1
 50 0 l 1
 50 400 l 1
 125 400 l 1
375 75 m 1
 375 325 l 1
 125 325 l 1
 125 75 l 1
 375 75 l 1
EndSplineSet
Validated: 1
EndChar

StartChar: h
Encoding: 104 104 34
Width: 500
Flags: MW
LayerCount: 2
Fore
SplineSet
376.060546875 400 m 1
 451.060546875 400 l 1
 451.060546875 325 l 1
 451.060546875 0 l 1
 376.060546875 0 l 1
 376.060546875 325 l 1
 123.939453125 325 l 1
 123.939453125 0 l 1
 48.939453125 0 l 1
 48.939453125 600 l 1
 123.939453125 600 l 1
 123.939453125 400 l 1
 376.060546875 400 l 1
EndSplineSet
Validated: 1
EndChar

StartChar: i
Encoding: 105 105 35
Width: 175
Flags: MW
LayerCount: 2
Fore
SplineSet
50 0 m 1
 50 400 l 1
 125 400 l 1
 125 0 l 1
 50 0 l 1
50 525 m 1
 50 600 l 1
 125 600 l 1
 125 525 l 1
 50 525 l 1
EndSplineSet
Validated: 1
EndChar

StartChar: j
Encoding: 106 106 36
Width: 300
Flags: MW
LayerCount: 2
Fore
SplineSet
175 -125 m 1
 175 400 l 1
 250 400 l 1
 250 -125 l 1
 250 -200 l 1
 175 -200 l 1
 50 -200 l 1
 50 -125 l 1
 175 -125 l 1
175 525 m 1
 175 600 l 1
 250 600 l 1
 250 525 l 1
 175 525 l 1
EndSplineSet
Validated: 1
EndChar

StartChar: k
Encoding: 107 107 37
Width: 500
Flags: HMW
LayerCount: 2
Fore
SplineSet
375 400 m 1
 450 400 l 1
 450 325 l 1
 450 0 l 1
 375 0 l 1
 375 325 l 1
 125 325 l 1
 125 0 l 1
 50 0 l 1
 50 325 l 1
 50 400 l 1
 50 600 l 1
 125 600 l 1
 125 400 l 1
 250 400 l 1
 250 500 l 1
 325 500 l 1
 325 400 l 1
 375 400 l 1
EndSplineSet
Validated: 1
EndChar

StartChar: l
Encoding: 108 108 38
Width: 175
Flags: MW
LayerCount: 2
Fore
SplineSet
50 0 m 1
 50 600 l 1
 125 600 l 1
 125 0 l 1
 50 0 l 1
EndSplineSet
Validated: 1
EndChar

StartChar: m
Encoding: 109 109 39
Width: 600
Flags: MW
LayerCount: 2
Fore
SplineSet
256.870117188 325 m 1
 131.870117188 325 l 1
 131.870117188 0 l 1
 56.8701171875 0 l 1
 56.8701171875 325 l 1
 56.8701171875 400 l 1
 131.870117188 400 l 1
 256.870117188 400 l 1
 331.870117188 400 l 1
 468.129882812 400 l 1
 543.129882812 400 l 1
 543.129882812 325 l 1
 543.129882812 0 l 1
 468.129882812 0 l 1
 468.129882812 325 l 1
 331.870117188 325 l 1
 331.870117188 0 l 1
 256.870117188 0 l 1
 256.870117188 325 l 1
EndSplineSet
Validated: 1
EndChar

StartChar: n
Encoding: 110 110 40
Width: 500
Flags: MW
LayerCount: 2
Fore
SplineSet
125 400 m 1
 375 400 l 1
 450 400 l 1
 450 325 l 1
 450 0 l 1
 375 0 l 1
 375 325 l 1
 125 325 l 1
 125 0 l 1
 50 0 l 1
 50 325 l 1
 50 400 l 1
 125 400 l 1
EndSplineSet
Validated: 1
EndChar

StartChar: o
Encoding: 111 111 41
Width: 500
Flags: MW
LayerCount: 2
Fore
SplineSet
125 400 m 1
 450 400 l 1
 450 0 l 1
 50 0 l 1
 50 400 l 1
 125 400 l 1
375 75 m 1
 375 325 l 1
 125 325 l 1
 125 75 l 1
 375 75 l 1
EndSplineSet
Validated: 1
EndChar

StartChar: p
Encoding: 112 112 42
Width: 500
Flags: MW
LayerCount: 2
Fore
SplineSet
376.060546875 400 m 1
 451.060546875 400 l 1
 451.060546875 0 l 1
 123.939453125 0 l 1
 123.939453125 -200 l 1
 48.939453125 -200 l 1
 48.939453125 400 l 1
 376.060546875 400 l 1
376.060546875 75 m 1
 376.060546875 325 l 1
 123.939453125 325 l 1
 123.939453125 75 l 1
 376.060546875 75 l 1
EndSplineSet
Validated: 1
EndChar

StartChar: q
Encoding: 113 113 43
Width: 500
Flags: MW
LayerCount: 2
Fore
SplineSet
125 400 m 1
 450 400 l 1
 450 -200 l 1
 375 -200 l 1
 375 0 l 1
 50 0 l 1
 50 400 l 1
 125 400 l 1
375 75 m 1
 375 325 l 1
 125 325 l 1
 125 75 l 1
 375 75 l 1
EndSplineSet
Validated: 1
EndChar

StartChar: r
Encoding: 114 114 44
Width: 500
Flags: MW
LayerCount: 2
Fore
SplineSet
125 325 m 1
 125 0 l 1
 50 0 l 1
 50 325 l 1
 50 400 l 1
 125 400 l 1
 450 400 l 1
 450 325 l 1
 125 325 l 1
EndSplineSet
Validated: 1
EndChar

StartChar: s
Encoding: 115 115 45
Width: 500
Flags: MW
LayerCount: 2
Fore
SplineSet
50 400 m 1
 125 400 l 1
 450 400 l 1
 450 325 l 1
 125 325 l 1
 125 237.5 l 1
 375 237.5 l 1
 450 237.5 l 1
 450 162.5 l 1
 450 75 l 1
 450 0 l 1
 375 0 l 1
 50 0 l 1
 50 75 l 1
 375 75 l 1
 375 162.5 l 1
 125 162.5 l 1
 50 162.5 l 1
 50 237.5 l 1
 50 325 l 1
 50 400 l 1
EndSplineSet
Validated: 1
EndChar

StartChar: t
Encoding: 116 116 46
Width: 500
Flags: MW
LayerCount: 2
Fore
SplineSet
287.5 600 m 1
 287.5 400 l 1
 450 400 l 1
 450 325 l 1
 287.5 325 l 1
 287.5 0 l 1
 212.5 0 l 1
 212.5 325 l 1
 50 325 l 1
 50 400 l 1
 212.5 400 l 1
 212.5 600 l 1
 287.5 600 l 1
EndSplineSet
Validated: 1
EndChar

StartChar: u
Encoding: 117 117 47
Width: 500
Flags: MW
LayerCount: 2
Fore
SplineSet
375 75 m 1
 375 400 l 1
 450 400 l 1
 450 75 l 1
 450 0 l 1
 375 0 l 1
 125 0 l 1
 50 0 l 1
 50 75 l 1
 50 400 l 1
 125 400 l 1
 125 75 l 1
 375 75 l 1
EndSplineSet
Validated: 1
EndChar

StartChar: v
Encoding: 118 118 48
Width: 500
Flags: MW
LayerCount: 2
Fore
SplineSet
250 75 m 1
 375 400 l 1
 450 400 l 1
 287.5 0 l 1
 212.5 0 l 1
 50 400 l 1
 125 400 l 1
 250 75 l 1
EndSplineSet
Validated: 1
EndChar

StartChar: w
Encoding: 119 119 49
Width: 600
Flags: MW
LayerCount: 2
Fore
SplineSet
475 75 m 1
 475 400 l 1
 550 400 l 1
 550 75 l 1
 550 0 l 1
 475 0 l 1
 337.5 0 l 1
 262.5 0 l 1
 125 0 l 1
 50 0 l 1
 50 75 l 1
 50 400 l 1
 125 400 l 1
 125 75 l 1
 262.5 75 l 1
 262.5 400 l 1
 337.5 400 l 1
 337.5 75 l 1
 475 75 l 1
EndSplineSet
Validated: 1
EndChar

StartChar: x
Encoding: 120 120 50
Width: 500
Flags: MW
LayerCount: 2
Fore
SplineSet
360 400 m 1
 450 400 l 1
 295 200 l 1
 450 0 l 1
 360 0 l 1
 250 141.940429688 l 1
 140 0 l 1
 50 0 l 1
 205 200 l 1
 50 400 l 1
 140 400 l 1
 250 258.059570312 l 1
 360 400 l 1
EndSplineSet
Validated: 1
EndChar

StartChar: y
Encoding: 121 121 51
Width: 500
Flags: MW
LayerCount: 2
Fore
SplineSet
375 75 m 1
 375 400 l 1
 450 400 l 1
 450 75 l 1
 450 0 l 1
 450 -125 l 1
 450 -200 l 1
 375 -200 l 1
 50 -200 l 1
 50 -125 l 1
 375 -125 l 1
 375 0 l 1
 125 0 l 1
 50 0 l 1
 50 75 l 1
 50 400 l 1
 125 400 l 1
 125 75 l 1
 375 75 l 1
EndSplineSet
Validated: 1
EndChar

StartChar: z
Encoding: 122 122 52
Width: 500
Flags: MW
LayerCount: 2
Fore
SplineSet
450 400 m 1
 391.879882812 325 l 1
 198.129882812 75 l 1
 450 75 l 1
 450 0 l 1
 140 0 l 1
 50 0 l 1
 108.129882812 75 l 1
 301.879882812 325 l 1
 50 325 l 1
 50 400 l 1
 360 400 l 1
 450 400 l 1
EndSplineSet
Validated: 1
EndChar

StartChar: comma
Encoding: 44 44 53
Width: 225
Flags: MW
LayerCount: 2
Fore
SplineSet
75 -70.5302734375 m 1
 0 -70.5302734375 l 1
 125 79.4697265625 l 1
 200 79.4697265625 l 1
 75 -70.5302734375 l 1
EndSplineSet
Validated: 1
EndChar

StartChar: exclam
Encoding: 33 33 54
Width: 175
Flags: MW
LayerCount: 2
Fore
SplineSet
50 0 m 1
 50 75 l 1
 125 75 l 1
 125 0 l 1
 50 0 l 1
50 200 m 1
 50 600 l 1
 125 600 l 1
 125 200 l 1
 50 200 l 1
EndSplineSet
Validated: 1
EndChar

StartChar: quotedbl
Encoding: 34 34 55
Width: 350
Flags: MW
LayerCount: 2
Fore
SplineSet
225 450 m 1
 225 600 l 1
 300 600 l 1
 300 450 l 1
 225 450 l 1
50 450 m 1
 50 600 l 1
 125 600 l 1
 125 450 l 1
 50 450 l 1
EndSplineSet
Validated: 1
EndChar

StartChar: numbersign
Encoding: 35 35 56
Width: 600
Flags: MW
LayerCount: 2
Fore
SplineSet
420.830078125 600 m 1
 420.830078125 454.169921875 l 1
 550 454.169921875 l 1
 550 379.169921875 l 1
 420.830078125 379.169921875 l 1
 420.830078125 220.830078125 l 1
 550 220.830078125 l 1
 550 145.830078125 l 1
 420.830078125 145.830078125 l 1
 420.830078125 0 l 1
 345.830078125 0 l 1
 345.830078125 145.830078125 l 1
 254.169921875 145.830078125 l 1
 254.169921875 0 l 1
 179.169921875 0 l 1
 179.169921875 145.830078125 l 1
 50 145.830078125 l 1
 50 220.830078125 l 1
 179.169921875 220.830078125 l 1
 179.169921875 379.169921875 l 1
 50 379.169921875 l 1
 50 454.169921875 l 1
 179.169921875 454.169921875 l 1
 179.169921875 600 l 1
 254.169921875 600 l 1
 254.169921875 454.169921875 l 1
 345.830078125 454.169921875 l 1
 345.830078125 600 l 1
 420.830078125 600 l 1
345.830078125 220.830078125 m 1
 345.830078125 379.169921875 l 1
 254.169921875 379.169921875 l 1
 254.169921875 220.830078125 l 1
 345.830078125 220.830078125 l 1
EndSplineSet
Validated: 1
EndChar

StartChar: dollar
Encoding: 36 36 57
Width: 500
Flags: MW
LayerCount: 2
Fore
SplineSet
287.5 700 m 1
 287.5 600 l 1
 450 600 l 1
 450 525 l 1
 125 525 l 1
 125 337.5 l 1
 375 337.5 l 1
 450 337.5 l 1
 450 262.5 l 1
 450 75 l 1
 450 0 l 1
 375 0 l 1
 287.5 0 l 1
 287.5 -100 l 1
 212.5 -100 l 1
 212.5 0 l 1
 50 0 l 1
 50 75 l 1
 375 75 l 1
 375 262.5 l 1
 125 262.5 l 1
 50 262.5 l 1
 50 337.5 l 1
 50 525 l 1
 50 600 l 1
 125 600 l 1
 212.5 600 l 1
 212.5 700 l 1
 287.5 700 l 1
EndSplineSet
Validated: 1
EndChar

StartChar: percent
Encoding: 37 37 58
Width: 500
Flags: MW
LayerCount: 2
Fore
SplineSet
75 500 m 1
 75 575 l 1
 150 575 l 1
 150 500 l 1
 75 500 l 1
350 25 m 1
 350 100 l 1
 425 100 l 1
 425 25 l 1
 350 25 l 1
50 0 m 1
 375 600 l 1
 450 600 l 1
 125 0 l 1
 50 0 l 1
EndSplineSet
Validated: 1
EndChar

StartChar: ampersand
Encoding: 38 38 59
Width: 600
Flags: MW
LayerCount: 2
Fore
SplineSet
450 525 m 1
 450 400 l 1
 550 400 l 1
 550 325 l 1
 450 325 l 1
 450 0 l 1
 50 0 l 1
 50 600 l 1
 450 600 l 1
 450 525 l 1
125 525 m 1
 125 400 l 1
 375 400 l 1
 375 525 l 1
 125 525 l 1
375 75 m 1
 375 325 l 1
 125 325 l 1
 125 75 l 1
 375 75 l 1
EndSplineSet
Validated: 1
EndChar

StartChar: quotesingle
Encoding: 39 39 60
Width: 200
Flags: MW
LayerCount: 2
Fore
SplineSet
62.5 450 m 1
 62.5 600 l 1
 137.5 600 l 1
 137.5 450 l 1
 62.5 450 l 1
EndSplineSet
Validated: 1
EndChar

StartChar: parenleft
Encoding: 40 40 61
Width: 250
Flags: MW
LayerCount: 2
Fore
SplineSet
200 0 m 1
 125 0 l 1
 50 300 l 1
 125 600 l 1
 200 600 l 1
 125 300 l 1
 200 0 l 1
EndSplineSet
Validated: 1
EndChar

StartChar: parenright
Encoding: 41 41 62
Width: 250
Flags: MW
LayerCount: 2
Fore
SplineSet
125 0 m 1
 50 0 l 1
 125 300 l 1
 50 600 l 1
 125 600 l 1
 200 300 l 1
 125 0 l 1
EndSplineSet
Validated: 1
EndChar

StartChar: asterisk
Encoding: 42 42 63
Width: 500
Flags: MW
LayerCount: 2
Fore
SplineSet
450 441.33984375 m 1
 349.01953125 400 l 1
 450 358.66015625 l 1
 421.379882812 289.290039062 l 1
 288.400390625 343.73046875 l 1
 288.400390625 200 l 1
 213.120117188 200 l 1
 213.120117188 344.360351562 l 1
 78.6201171875 289.290039062 l 1
 50 358.66015625 l 1
 150.98046875 400 l 1
 50 441.33984375 l 1
 78.6201171875 510.709960938 l 1
 213.120117188 455.639648438 l 1
 213.120117188 600 l 1
 288.400390625 600 l 1
 288.400390625 456.26953125 l 1
 421.379882812 510.709960938 l 1
 450 441.33984375 l 1
EndSplineSet
Validated: 1
EndChar

StartChar: plus
Encoding: 43 43 64
Width: 400
Flags: MW
LayerCount: 2
Fore
SplineSet
162.5 100 m 1
 162.5 212.5 l 1
 50 212.5 l 1
 50 287.5 l 1
 162.5 287.5 l 1
 162.5 400 l 1
 237.5 400 l 1
 237.5 287.5 l 1
 350 287.5 l 1
 350 212.5 l 1
 237.5 212.5 l 1
 237.5 100 l 1
 162.5 100 l 1
EndSplineSet
Validated: 1
EndChar

StartChar: hyphen
Encoding: 45 45 65
Width: 400
Flags: MW
LayerCount: 2
Fore
SplineSet
50 212.5 m 1
 50 287.5 l 1
 350 287.5 l 1
 350 212.5 l 1
 50 212.5 l 1
EndSplineSet
Validated: 1
EndChar

StartChar: period
Encoding: 46 46 66
Width: 175
Flags: MW
LayerCount: 2
Fore
SplineSet
50 0 m 1
 50 75 l 1
 125 75 l 1
 125 0 l 1
 50 0 l 1
EndSplineSet
Validated: 1
EndChar

StartChar: slash
Encoding: 47 47 67
Width: 350
Flags: MW
LayerCount: 2
Fore
SplineSet
50 0 m 1
 225 600 l 1
 300 600 l 1
 125 0 l 1
 50 0 l 1
EndSplineSet
Validated: 1
EndChar

StartChar: colon
Encoding: 58 58 68
Width: 175
Flags: MW
LayerCount: 2
Fore
SplineSet
50 325 m 1
 50 400 l 1
 125 400 l 1
 125 325 l 1
 50 325 l 1
50 0 m 1
 50 75 l 1
 125 75 l 1
 125 0 l 1
 50 0 l 1
EndSplineSet
Validated: 1
EndChar

StartChar: semicolon
Encoding: 59 59 69
Width: 250
Flags: MW
LayerCount: 2
Fore
SplineSet
150 325 m 1
 150 400 l 1
 225 400 l 1
 225 325 l 1
 150 325 l 1
225 75 m 1
 100 -75 l 1
 25 -75 l 1
 150 75 l 1
 225 75 l 1
EndSplineSet
Validated: 1
EndChar

StartChar: less
Encoding: 60 60 70
Width: 350
Flags: MW
LayerCount: 2
Fore
SplineSet
293.75 0 m 1
 218.75 0 l 1
 56.25 200 l 1
 218.75 400 l 1
 293.75 400 l 1
 131.25 200 l 1
 293.75 0 l 1
EndSplineSet
Validated: 1
EndChar

StartChar: equal
Encoding: 61 61 71
Width: 400
Flags: MW
LayerCount: 2
Fore
SplineSet
50 325 m 1
 50 400 l 1
 350 400 l 1
 350 325 l 1
 50 325 l 1
50 150 m 1
 50 225 l 1
 350 225 l 1
 350 150 l 1
 50 150 l 1
EndSplineSet
Validated: 1
EndChar

StartChar: greater
Encoding: 62 62 72
Width: 350
Flags: MW
LayerCount: 2
Fore
SplineSet
56.25 400 m 1
 131.25 400 l 1
 293.75 200 l 1
 131.25 0 l 1
 56.25 0 l 1
 218.75 200 l 1
 56.25 400 l 1
EndSplineSet
Validated: 1
EndChar

StartChar: question
Encoding: 63 63 73
Width: 500
Flags: MW
LayerCount: 2
Fore
SplineSet
125 600 m 1
 375 600 l 1
 450 600 l 1
 450 525 l 1
 450 400 l 1
 450 325 l 1
 375 325 l 1
 287.5 325 l 1
 287.5 200 l 1
 212.5 200 l 1
 212.5 325 l 1
 212.5 400 l 1
 287.5 400 l 1
 375 400 l 1
 375 525 l 1
 125 525 l 1
 125 400 l 1
 50 400 l 1
 50 525 l 1
 50 600 l 1
 125 600 l 1
212.5 0 m 1
 212.5 75 l 1
 287.5 75 l 1
 287.5 0 l 1
 212.5 0 l 1
EndSplineSet
Validated: 1
EndChar

StartChar: at
Encoding: 64 64 74
Width: 500
Flags: MW
LayerCount: 2
Fore
SplineSet
125 400 m 1
 450 400 l 1
 450 108.330078125 l 1
 158.330078125 108.330078125 l 1
 158.330078125 291.669921875 l 1
 375 291.669921875 l 1
 375 325 l 1
 125 325 l 1
 125 75 l 1
 450 75 l 1
 450 0 l 1
 50 0 l 1
 50 400 l 1
 125 400 l 1
375 183.330078125 m 1
 375 216.669921875 l 1
 233.330078125 216.669921875 l 1
 233.330078125 183.330078125 l 1
 375 183.330078125 l 1
EndSplineSet
Validated: 1
EndChar

StartChar: bracketleft
Encoding: 91 91 75
Width: 300
Flags: MW
LayerCount: 2
Fore
SplineSet
50 600 m 1
 125 600 l 1
 250 600 l 1
 250 525 l 1
 125 525 l 1
 125 75 l 1
 250 75 l 1
 250 0 l 1
 125 0 l 1
 50 0 l 1
 50 75 l 1
 50 525 l 1
 50 600 l 1
EndSplineSet
Validated: 1
EndChar

StartChar: backslash
Encoding: 92 92 76
Width: 350
Flags: MW
LayerCount: 2
Fore
SplineSet
50 600 m 1
 125 600 l 1
 300 0 l 1
 225 0 l 1
 50 600 l 1
EndSplineSet
Validated: 1
EndChar

StartChar: bracketright
Encoding: 93 93 77
Width: 300
Flags: MW
LayerCount: 2
Fore
SplineSet
50 600 m 1
 175 600 l 1
 250 600 l 1
 250 525 l 1
 250 75 l 1
 250 0 l 1
 175 0 l 1
 50 0 l 1
 50 75 l 1
 175 75 l 1
 175 525 l 1
 50 525 l 1
 50 600 l 1
EndSplineSet
Validated: 1
EndChar

StartChar: asciicircum
Encoding: 94 94 78
Width: 400
Flags: MW
LayerCount: 2
Fore
SplineSet
50 500 m 1
 200 600 l 1
 350 500 l 1
 350 425 l 1
 200 525 l 1
 50 425 l 1
 50 500 l 1
EndSplineSet
Validated: 1
EndChar

StartChar: underscore
Encoding: 95 95 79
Width: 500
Flags: MW
LayerCount: 2
Fore
SplineSet
50 0 m 1
 50 75 l 1
 450 75 l 1
 450 0 l 1
 50 0 l 1
EndSplineSet
Validated: 1
EndChar

StartChar: grave
Encoding: 96 96 80
Width: 300
Flags: MW
LayerCount: 2
Fore
SplineSet
50 600 m 1
 125 600 l 1
 250 450 l 1
 175 450 l 1
 50 600 l 1
EndSplineSet
Validated: 1
EndChar

StartChar: braceleft
Encoding: 123 123 81
Width: 400
Flags: MW
LayerCount: 2
Fore
SplineSet
162.5 600 m 1
 237.5 600 l 1
 362.5 600 l 1
 362.5 525 l 1
 237.5 525 l 1
 237.5 337.5 l 1
 237.5 262.5 l 1
 237.5 75 l 1
 362.5 75 l 1
 362.5 0 l 1
 237.5 0 l 1
 162.5 0 l 1
 162.5 75 l 1
 162.5 262.5 l 1
 37.5 262.5 l 1
 37.5 337.5 l 1
 162.5 337.5 l 1
 162.5 525 l 1
 162.5 600 l 1
EndSplineSet
Validated: 1
EndChar

StartChar: bar
Encoding: 124 124 82
Width: 175
Flags: MW
LayerCount: 2
Fore
SplineSet
50 -100 m 1
 50 600 l 1
 125 600 l 1
 125 -100 l 1
 50 -100 l 1
EndSplineSet
Validated: 1
EndChar

StartChar: braceright
Encoding: 125 125 83
Width: 400
Flags: MW
LayerCount: 2
Fore
SplineSet
237.5 525 m 1
 237.5 337.5 l 1
 362.5 337.5 l 1
 362.5 262.5 l 1
 237.5 262.5 l 1
 237.5 75 l 1
 237.5 0 l 1
 162.5 0 l 1
 37.5 0 l 1
 37.5 75 l 1
 162.5 75 l 1
 162.5 262.5 l 1
 162.5 337.5 l 1
 162.5 525 l 1
 37.5 525 l 1
 37.5 600 l 1
 162.5 600 l 1
 237.5 600 l 1
 237.5 525 l 1
EndSplineSet
Validated: 1
EndChar

StartChar: asciitilde
Encoding: 126 126 84
Width: 500
Flags: MW
LayerCount: 2
Fore
SplineSet
125 287.5 m 1
 375 287.5 l 1
 450 287.5 l 1
 450 212.5 l 1
 450 100 l 1
 375 100 l 1
 375 212.5 l 1
 125 212.5 l 1
 50 212.5 l 1
 50 287.5 l 1
 50 400 l 1
 125 400 l 1
 125 287.5 l 1
EndSplineSet
Validated: 1
EndChar

StartChar: zero
Encoding: 48 48 85
Width: 500
Flags: MW
LayerCount: 2
Fore
SplineSet
125 599.5 m 1
 450 599.5 l 1
 450 -0.5 l 1
 50 -0.5 l 1
 50 599.5 l 1
 125 599.5 l 1
375 74.5 m 1
 375 524.5 l 1
 125 524.5 l 1
 125 74.5 l 1
 375 74.5 l 1
EndSplineSet
Validated: 1
EndChar

StartChar: one
Encoding: 49 49 86
Width: 300
Flags: MW
LayerCount: 2
Fore
SplineSet
175 599.5 m 1
 250 599.5 l 1
 250 524.5 l 1
 250 -0.5 l 1
 175 -0.5 l 1
 175 524.5 l 1
 50 524.5 l 1
 50 599.5 l 1
 175 599.5 l 1
EndSplineSet
Validated: 1
EndChar

StartChar: two
Encoding: 50 50 87
Width: 500
Flags: MW
LayerCount: 2
Fore
SplineSet
50 599.5 m 1
 375 599.5 l 1
 450 599.5 l 1
 450 524.5 l 1
 450 399.5 l 1
 450 324.5 l 1
 375 324.5 l 1
 125 324.5 l 1
 125 74.5 l 1
 450 74.5 l 1
 450 -0.5 l 1
 125 -0.5 l 1
 50 -0.5 l 1
 50 74.5 l 1
 50 324.5 l 1
 50 399.5 l 1
 125 399.5 l 1
 375 399.5 l 1
 375 524.5 l 1
 50 524.5 l 1
 50 599.5 l 1
EndSplineSet
Validated: 1
EndChar

StartChar: three
Encoding: 51 51 88
Width: 500
Flags: MW
LayerCount: 2
Fore
SplineSet
450 -0.5 m 1
 375 -0.5 l 1
 50 -0.5 l 1
 50 74.5 l 1
 375 74.5 l 1
 375 324.5 l 1
 50 324.5 l 1
 50 399.5 l 1
 375 399.5 l 1
 375 524.5 l 1
 50 524.5 l 1
 50 599.5 l 1
 375 599.5 l 1
 450 599.5 l 1
 450 524.5 l 1
 450 399.5 l 1
 450 324.5 l 1
 450 74.5 l 1
 450 -0.5 l 1
EndSplineSet
Validated: 1
EndChar

StartChar: four
Encoding: 52 52 89
Width: 500
Flags: MW
LayerCount: 2
Fore
SplineSet
375 324.5 m 1
 125 324.5 l 1
 50 324.5 l 1
 50 399.5 l 1
 50 599.5 l 1
 125 599.5 l 1
 125 399.5 l 1
 375 399.5 l 1
 375 599.5 l 1
 450 599.5 l 1
 450 399.5 l 1
 450 324.5 l 1
 450 -0.5 l 1
 375 -0.5 l 1
 375 324.5 l 1
EndSplineSet
Validated: 1
EndChar

StartChar: five
Encoding: 53 53 90
Width: 500
Flags: MW
LayerCount: 2
Fore
SplineSet
50 599.5 m 1
 125 599.5 l 1
 450 599.5 l 1
 450 524.5 l 1
 125 524.5 l 1
 125 399.5 l 1
 375 399.5 l 1
 450 399.5 l 1
 450 324.5 l 1
 450 74.5 l 1
 450 -0.5 l 1
 375 -0.5 l 1
 50 -0.5 l 1
 50 74.5 l 1
 50 149.5 l 1
 125 149.5 l 1
 125 74.5 l 1
 375 74.5 l 1
 375 324.5 l 1
 125 324.5 l 1
 50 324.5 l 1
 50 399.5 l 1
 50 524.5 l 1
 50 599.5 l 1
EndSplineSet
Validated: 1
EndChar

StartChar: six
Encoding: 54 54 91
Width: 500
Flags: MW
LayerCount: 2
Fore
SplineSet
50 599.5 m 1
 450 599.5 l 1
 450 524.5 l 1
 125 524.5 l 1
 125 399.5 l 1
 450 399.5 l 1
 450 -0.5 l 1
 50 -0.5 l 1
 50 599.5 l 1
375 324.5 m 1
 125 324.5 l 1
 125 74.5 l 1
 375 74.5 l 1
 375 324.5 l 1
EndSplineSet
Validated: 1
EndChar

StartChar: seven
Encoding: 55 55 92
Width: 500
Flags: MW
LayerCount: 2
Fore
SplineSet
50 599.5 m 1
 375 599.5 l 1
 450 599.5 l 1
 450 524.5 l 1
 450 -0.5 l 1
 375 -0.5 l 1
 375 524.5 l 1
 50 524.5 l 1
 50 599.5 l 1
EndSplineSet
Validated: 1
EndChar

StartChar: eight
Encoding: 56 56 93
Width: 500
Flags: MW
LayerCount: 2
Fore
SplineSet
125 599.5 m 1
 450 599.5 l 1
 450 -0.5 l 1
 50 -0.5 l 1
 50 599.5 l 1
 125 599.5 l 1
375 74.5 m 1
 375 324.5 l 1
 125 324.5 l 1
 125 74.5 l 1
 375 74.5 l 1
375 399.5 m 1
 375 524.5 l 1
 125 524.5 l 1
 125 399.5 l 1
 375 399.5 l 1
EndSplineSet
Validated: 1
EndChar

StartChar: nine
Encoding: 57 57 94
Width: 500
Flags: MW
LayerCount: 2
Fore
SplineSet
375 599.5 m 1
 450 599.5 l 1
 450 -0.5 l 1
 50 -0.5 l 1
 50 74.5 l 1
 375 74.5 l 1
 375 324.5 l 1
 50 324.5 l 1
 50 599.5 l 1
 375 599.5 l 1
375 399.5 m 1
 375 524.5 l 1
 125 524.5 l 1
 125 399.5 l 1
 375 399.5 l 1
EndSplineSet
Validated: 1
EndChar

StartChar: exclamdown
Encoding: 161 161 95
Width: 175
Flags: MW
LayerCount: 2
Fore
SplineSet
50 -200 m 1
 50 200 l 1
 125 200 l 1
 125 -200 l 1
 50 -200 l 1
50 325 m 1
 50 400 l 1
 125 400 l 1
 125 325 l 1
 50 325 l 1
EndSplineSet
Validated: 1
EndChar

StartChar: cent
Encoding: 162 162 96
Width: 500
Flags: MW
LayerCount: 2
Fore
SplineSet
287.5 500 m 1
 287.5 400 l 1
 450 400 l 1
 450 325 l 1
 287.5 325 l 1
 287.5 75 l 1
 450 75 l 1
 450 0 l 1
 287.5 0 l 1
 287.5 -100 l 1
 212.5 -100 l 1
 212.5 0 l 1
 50 0 l 1
 50 400 l 1
 212.5 400 l 1
 212.5 500 l 1
 287.5 500 l 1
212.5 75 m 1
 212.5 325 l 1
 125 325 l 1
 125 75 l 1
 212.5 75 l 1
EndSplineSet
Validated: 1
EndChar

StartChar: sterling
Encoding: 163 163 97
Width: 500
Flags: MW
LayerCount: 2
Fore
SplineSet
225 600 m 1
 375 600 l 1
 450 600 l 1
 450 525 l 1
 450 450 l 1
 375 450 l 1
 375 525 l 1
 225 525 l 1
 225 400 l 1
 400 400 l 1
 400 325 l 1
 224.8203125 325 l 1
 125 75 l 1
 375 75 l 1
 375 200 l 1
 450 200 l 1
 450 75 l 1
 450 0 l 1
 375 0 l 1
 125 0 l 1
 50 0 l 1
 50 75 l 1
 149.8203125 325 l 1
 50 325 l 1
 50 400 l 1
 150 400 l 1
 150 525 l 1
 150 600 l 1
 225 600 l 1
EndSplineSet
Validated: 1
EndChar

StartChar: currency
Encoding: 164 164 98
Width: 500
Flags: HMW
LayerCount: 2
Fore
SplineSet
436.610351562 200 m 1
 371.299804688 134.690429688 l 1
 449.549804688 56.4697265625 l 1
 393.549804688 0.4697265625 l 1
 315.309570312 78.7001953125 l 1
 250 13.3896484375 l 1
 184.709960938 78.7099609375 l 1
 106 0 l 1
 50 56 l 1
 128.700195312 134.690429688 l 1
 63.3896484375 200 l 1
 128.6796875 265.299804688 l 1
 50.4501953125 343.530273438 l 1
 106.450195312 399.530273438 l 1
 184.690429688 321.299804688 l 1
 250 386.610351562 l 1
 315.309570312 321.299804688 l 1
 335.75 341.759765625 l 1
 373.0703125 379.080078125 l 1
 394 400 l 1
 450 344 l 1
 371.280273438 265.330078125 l 1
 380.610351562 256 l 1
 436.610351562 200 l 1
175.360351562 200 m 1
 250 125.360351562 l 1
 324.639648438 200 l 1
 250 274.650390625 l 1
 175.360351562 200 l 1
EndSplineSet
Validated: 1
EndChar

StartChar: yen
Encoding: 165 165 99
Width: 500
Flags: MW
LayerCount: 2
Fore
SplineSet
375 600 m 1
 450 600 l 1
 331.540039062 399.530273438 l 1
 450 399.530273438 l 1
 450 324.530273438 l 1
 287.5 324.530273438 l 1
 287.5 224.379882812 l 1
 450 224.379882812 l 1
 450 149.379882812 l 1
 287.5 149.379882812 l 1
 287.5 0 l 1
 212.5 0 l 1
 212.5 149.379882812 l 1
 50 149.379882812 l 1
 50 224.379882812 l 1
 212.5 224.379882812 l 1
 212.5 324.530273438 l 1
 50 324.530273438 l 1
 50 399.530273438 l 1
 168.459960938 399.530273438 l 1
 50 600 l 1
 125 600 l 1
 243.1796875 400 l 1
 256.8203125 400 l 1
 375 600 l 1
EndSplineSet
Validated: 1
EndChar

StartChar: brokenbar
Encoding: 166 166 100
Width: 175
Flags: MW
LayerCount: 2
Fore
SplineSet
50 -100 m 1
 50 200 l 1
 125 200 l 1
 125 -100 l 1
 50 -100 l 1
50 300 m 1
 50 600 l 1
 125 600 l 1
 125 300 l 1
 50 300 l 1
EndSplineSet
Validated: 1
EndChar

StartChar: section
Encoding: 167 167 101
Width: 500
Flags: MW
LayerCount: 2
Fore
SplineSet
50 600 m 1
 450 600 l 1
 450 525 l 1
 125 525 l 1
 125 358.330078125 l 1
 450 358.330078125 l 1
 450 -200 l 1
 50 -200 l 1
 50 -125 l 1
 375 -125 l 1
 375 41.669921875 l 1
 50 41.669921875 l 1
 50 600 l 1
375 283.330078125 m 1
 125 283.330078125 l 1
 125 116.669921875 l 1
 375 116.669921875 l 1
 375 283.330078125 l 1
EndSplineSet
Validated: 1
EndChar

StartChar: dieresis
Encoding: 168 168 102
Width: 400
Flags: MW
LayerCount: 2
Fore
SplineSet
50 525 m 1
 50 600 l 1
 125 600 l 1
 125 525 l 1
 50 525 l 1
275 525 m 1
 275 600 l 1
 350 600 l 1
 350 525 l 1
 275 525 l 1
EndSplineSet
Validated: 1
EndChar

StartChar: copyright
Encoding: 169 169 103
Width: 500
Flags: MW
LayerCount: 2
Fore
SplineSet
90 500 m 1
 450 500 l 1
 450 100 l 1
 50 100 l 1
 50 500 l 1
 90 500 l 1
410 140 m 1
 410 460 l 1
 90 460 l 1
 90 140 l 1
 410 140 l 1
206.669921875 216.669921875 m 1
 166.669921875 216.669921875 l 1
 166.669921875 256.669921875 l 1
 166.669921875 343.330078125 l 1
 166.669921875 383.330078125 l 1
 206.669921875 383.330078125 l 1
 333.330078125 383.330078125 l 1
 333.330078125 343.330078125 l 1
 206.669921875 343.330078125 l 1
 206.669921875 256.669921875 l 1
 333.330078125 256.669921875 l 1
 333.330078125 216.669921875 l 1
 206.669921875 216.669921875 l 1
EndSplineSet
Validated: 1
EndChar

StartChar: ordfeminine
Encoding: 170 170 104
Width: 300
Flags: MW
LayerCount: 2
Fore
SplineSet
210 400 m 1
 50 400 l 1
 50 525 l 1
 210 525 l 1
 210 560 l 1
 50 560 l 1
 50 600 l 1
 250 600 l 1
 250 400 l 1
 210 400 l 1
90 485 m 1
 90 440 l 1
 210 440 l 1
 210 485 l 1
 90 485 l 1
EndSplineSet
Validated: 1
EndChar

StartChar: guillemotleft
Encoding: 171 171 105
Width: 500
Flags: HMW
LayerCount: 2
Fore
SplineSet
375 0 m 1
 250 200 l 1
 375 400 l 1
 450 400 l 1
 325 200 l 1
 450 0 l 1
 375 0 l 1
250 0 m 1
 175 0 l 1
 50 200 l 1
 175 400 l 1
 250 400 l 1
 125 200 l 1
 250 0 l 1
EndSplineSet
Validated: 1
EndChar

StartChar: logicalnot
Encoding: 172 172 106
Width: 500
Flags: MW
LayerCount: 2
Fore
SplineSet
50 300 m 1
 375 300 l 1
 450 300 l 1
 450 225 l 1
 450 100 l 1
 375 100 l 1
 375 225 l 1
 50 225 l 1
 50 300 l 1
EndSplineSet
Validated: 1
EndChar

StartChar: uni00AD
Encoding: 173 173 107
Width: 400
Flags: MW
LayerCount: 2
Fore
SplineSet
50 162.5 m 1
 50 237.5 l 1
 350 237.5 l 1
 350 162.5 l 1
 50 162.5 l 1
EndSplineSet
Validated: 1
EndChar

StartChar: registered
Encoding: 174 174 108
Width: 400
Flags: MW
LayerCount: 2
Fore
SplineSet
90 600 m 1
 350 600 l 1
 350 300 l 1
 50 300 l 1
 50 600 l 1
 90 600 l 1
310 340 m 1
 310 560 l 1
 90 560 l 1
 90 340 l 1
 310 340 l 1
165 366.669921875 m 1
 125 366.669921875 l 1
 125 533.349609375 l 1
 253.330078125 533.349609375 l 1
 253.330078125 445.349609375 l 1
 270 445.349609375 l 1
 270 366.669921875 l 1
 230 366.669921875 l 1
 230 405 l 1
 165 405 l 1
 165 366.669921875 l 1
213.330078125 493.330078125 m 1
 165 493.330078125 l 1
 165 445 l 1
 213.330078125 445 l 1
 213.330078125 493.330078125 l 1
EndSplineSet
Validated: 1
EndChar

StartChar: macron
Encoding: 175 175 109
Width: 500
Flags: MW
LayerCount: 2
Fore
SplineSet
50 522.5 m 1
 50 597.5 l 1
 450 597.5 l 1
 450 522.5 l 1
 50 522.5 l 1
EndSplineSet
Validated: 1
EndChar

StartChar: degree
Encoding: 176 176 110
Width: 300
Flags: MW
LayerCount: 2
Fore
SplineSet
90 600 m 1
 250 600 l 1
 250 400 l 1
 50 400 l 1
 50 600 l 1
 90 600 l 1
210 440 m 1
 210 560 l 1
 90 560 l 1
 90 440 l 1
 210 440 l 1
EndSplineSet
Validated: 1
EndChar

StartChar: plusminus
Encoding: 177 177 111
Width: 400
Flags: MW
LayerCount: 2
Fore
SplineSet
50 0 m 1
 50 75 l 1
 350 75 l 1
 350 0 l 1
 50 0 l 1
162.5 400 m 1
 237.5 400 l 1
 237.5 287.5 l 1
 350 287.5 l 1
 350 212.5 l 1
 237.5 212.5 l 1
 237.5 100 l 1
 162.5 100 l 1
 162.5 212.5 l 1
 50 212.5 l 1
 50 287.5 l 1
 162.5 287.5 l 1
 162.5 400 l 1
EndSplineSet
Validated: 1
EndChar

StartChar: uni00B2
Encoding: 178 178 112
Width: 250
Flags: MW
LayerCount: 2
Fore
SplineSet
200 400 m 1
 90 400 l 1
 50 400 l 1
 50 440 l 1
 50 480 l 1
 50 520 l 1
 90 520 l 1
 160 520 l 1
 160 560 l 1
 50 560 l 1
 50 600 l 1
 160 600 l 1
 200 600 l 1
 200 560 l 1
 200 520 l 1
 200 480 l 1
 160 480 l 1
 90 480 l 1
 90 440 l 1
 200 440 l 1
 200 400 l 1
EndSplineSet
Validated: 1
EndChar

StartChar: uni00B3
Encoding: 179 179 113
Width: 250
Flags: MW
LayerCount: 2
Fore
SplineSet
50 600 m 1
 160 600 l 1
 200 600 l 1
 200 560 l 1
 200 520 l 1
 200 480 l 1
 200 440 l 1
 200 400 l 1
 160 400 l 1
 50 400 l 1
 50 440 l 1
 160 440 l 1
 160 480 l 1
 50 480 l 1
 50 520 l 1
 160 520 l 1
 160 560 l 1
 50 560 l 1
 50 600 l 1
EndSplineSet
Validated: 1
EndChar

StartChar: acute
Encoding: 180 180 114
Width: 300
Flags: MW
LayerCount: 2
Fore
SplineSet
250 600 m 1
 125 450 l 1
 50 450 l 1
 175 600 l 1
 250 600 l 1
EndSplineSet
Validated: 1
EndChar

StartChar: mu
Encoding: 181 181 115
Width: 600
Flags: MW
LayerCount: 2
Fore
SplineSet
450 400 m 1
 450 75 l 1
 550 75 l 1
 550 0 l 1
 450 0 l 1
 375 0 l 1
 125 0 l 1
 125 -100 l 1
 50 -100 l 1
 50 0 l 1
 50 75 l 1
 50 400 l 1
 125 400 l 1
 125 75 l 1
 375 75 l 1
 375 400 l 1
 450 400 l 1
EndSplineSet
Validated: 1
EndChar

StartChar: paragraph
Encoding: 182 182 116
Width: 500
Flags: MW
LayerCount: 2
Fore
SplineSet
355 600 m 1
 395 600 l 1
 450 600 l 1
 450 560 l 1
 395 560 l 1
 395 -100 l 1
 355 -100 l 1
 355 560 l 1
 295 560 l 1
 295 300 l 1
 295 -100 l 1
 255 -100 l 1
 255 300 l 1
 50 300 l 1
 50 560 l 1
 50 600 l 1
 255 600 l 1
 295 600 l 1
 355 600 l 1
EndSplineSet
Validated: 1
EndChar

StartChar: periodcentered
Encoding: 183 183 117
Width: 175
Flags: MW
LayerCount: 2
Fore
SplineSet
50 325 m 1
 50 400 l 1
 125 400 l 1
 125 325 l 1
 50 325 l 1
EndSplineSet
Validated: 1
EndChar

StartChar: cedilla
Encoding: 184 184 118
Width: 175
Flags: MW
LayerCount: 2
Fore
SplineSet
50 -100 m 1
 50 0 l 1
 125 0 l 1
 125 -100 l 1
 50 -100 l 1
EndSplineSet
Validated: 1
EndChar

StartChar: uni00B9
Encoding: 185 185 119
Width: 200
Flags: MW
LayerCount: 2
Fore
SplineSet
50 600 m 1
 110 600 l 1
 150 600 l 1
 150 560 l 1
 150 400 l 1
 110 400 l 1
 110 560 l 1
 50 560 l 1
 50 600 l 1
EndSplineSet
Validated: 1
EndChar

StartChar: ordmasculine
Encoding: 186 186 120
Width: 250
Flags: MW
LayerCount: 2
Fore
SplineSet
90 600 m 1
 200 600 l 1
 200 400 l 1
 50 400 l 1
 50 600 l 1
 90 600 l 1
160 440 m 1
 160 560 l 1
 90 560 l 1
 90 440 l 1
 160 440 l 1
EndSplineSet
Validated: 1
EndChar

StartChar: guillemotright
Encoding: 187 187 121
Width: 500
Flags: HMW
LayerCount: 2
Fore
SplineSet
125 0 m 1
 50 0 l 1
 175 200 l 1
 50 400 l 1
 125 400 l 1
 250 200 l 1
 125 0 l 1
250 400 m 1
 325 400 l 1
 450 200 l 1
 325 0 l 1
 250 0 l 1
 375 200 l 1
 250 400 l 1
EndSplineSet
Validated: 1
EndChar

StartChar: onequarter
Encoding: 188 188 122
Width: 500
Flags: MW
LayerCount: 2
Fore
SplineSet
111.049804688 400 m 1
 111.049804688 560 l 1
 51.0498046875 560 l 1
 51.0498046875 600 l 1
 111.049804688 600 l 1
 151.049804688 600 l 1
 151.049804688 560 l 1
 151.049804688 400 l 1
 111.049804688 400 l 1
448.940429688 0 m 1
 408.940429688 0 l 1
 408.940429688 80 l 1
 338.940429688 80 l 1
 298.940429688 80 l 1
 298.940429688 120 l 1
 298.940429688 200 l 1
 338.940429688 200 l 1
 338.940429688 120 l 1
 408.940429688 120 l 1
 408.940429688 200 l 1
 448.940429688 200 l 1
 448.940429688 120 l 1
 448.940429688 80 l 1
 448.940429688 0 l 1
450 600 m 1
 89.9501953125 0 l 1
 50 0 l 1
 410.049804688 600 l 1
 450 600 l 1
EndSplineSet
Validated: 1
EndChar

StartChar: onehalf
Encoding: 189 189 123
Width: 500
Flags: MW
LayerCount: 2
Fore
SplineSet
110 400 m 1
 110 560 l 1
 50 560 l 1
 50 600 l 1
 110 600 l 1
 150 600 l 1
 150 560 l 1
 150 400 l 1
 110 400 l 1
50 0 m 1
 410.049804688 600 l 1
 450 600 l 1
 89.9501953125 0 l 1
 50 0 l 1
300 200 m 1
 410 200 l 1
 450 200 l 1
 450 160 l 1
 450 120 l 1
 450 80 l 1
 410 80 l 1
 340 80 l 1
 340 40 l 1
 450 40 l 1
 450 0 l 1
 340 0 l 1
 300 0 l 1
 300 40 l 1
 300 80 l 1
 300 120 l 1
 340 120 l 1
 410 120 l 1
 410 160 l 1
 300 160 l 1
 300 200 l 1
EndSplineSet
Validated: 1
EndChar

StartChar: threequarters
Encoding: 190 190 124
Width: 500
Flags: MW
LayerCount: 2
Fore
SplineSet
450 0 m 1
 410 0 l 1
 410 80 l 1
 340 80 l 1
 300 80 l 1
 300 120 l 1
 300 200 l 1
 340 200 l 1
 340 120 l 1
 410 120 l 1
 410 200 l 1
 450 200 l 1
 450 120 l 1
 450 80 l 1
 450 0 l 1
450 600 m 1
 89.9501953125 0 l 1
 50 0 l 1
 410.049804688 600 l 1
 450 600 l 1
200 400 m 1
 160 400 l 1
 50 400 l 1
 50 440 l 1
 160 440 l 1
 160 480 l 1
 50 480 l 1
 50 520 l 1
 160 520 l 1
 160 560 l 1
 50 560 l 1
 50 600 l 1
 160 600 l 1
 200 600 l 1
 200 560 l 1
 200 520 l 1
 200 480 l 1
 200 440 l 1
 200 400 l 1
EndSplineSet
Validated: 1
EndChar

StartChar: questiondown
Encoding: 191 191 125
Width: 500
Flags: MW
LayerCount: 2
Fore
SplineSet
212.5 325 m 1
 212.5 400 l 1
 287.5 400 l 1
 287.5 325 l 1
 212.5 325 l 1
375 -125 m 1
 375 0 l 1
 450 0 l 1
 450 -125 l 1
 450 -200 l 1
 375 -200 l 1
 125 -200 l 1
 50 -200 l 1
 50 -125 l 1
 50 0 l 1
 50 75 l 1
 125 75 l 1
 212.5 75 l 1
 212.5 200 l 1
 287.5 200 l 1
 287.5 75 l 1
 287.5 0 l 1
 212.5 0 l 1
 125 0 l 1
 125 -125 l 1
 375 -125 l 1
EndSplineSet
Validated: 1
EndChar

StartChar: Agrave
Encoding: 192 192 126
Width: 500
Flags: MW
LayerCount: 2
Fore
SplineSet
240 800 m 1
 300 650 l 1
 260 650 l 1
 200 800 l 1
 240 800 l 1
125 600 m 1
 450 600 l 1
 450 0 l 1
 375 0 l 1
 375 325 l 1
 125 325 l 1
 125 0 l 1
 50 0 l 1
 50 600 l 1
 125 600 l 1
375 400 m 1
 375 525 l 1
 125 525 l 1
 125 400 l 1
 375 400 l 1
EndSplineSet
Validated: 1
EndChar

StartChar: Aacute
Encoding: 193 193 127
Width: 500
Flags: MW
LayerCount: 2
Fore
SplineSet
240 650 m 1
 200 650 l 1
 260 800 l 1
 300 800 l 1
 240 650 l 1
125 600 m 1
 450 600 l 1
 450 0 l 1
 375 0 l 1
 375 325 l 1
 125 325 l 1
 125 0 l 1
 50 0 l 1
 50 600 l 1
 125 600 l 1
375 400 m 1
 375 525 l 1
 125 525 l 1
 125 400 l 1
 375 400 l 1
EndSplineSet
Validated: 1
EndChar

StartChar: Acircumflex
Encoding: 194 194 128
Width: 500
Flags: MW
LayerCount: 2
Fore
SplineSet
100 650 m 1
 100 690 l 1
 250 800 l 1
 400 690 l 1
 400 650 l 1
 250 760 l 1
 100 650 l 1
125 600 m 1
 450 600 l 1
 450 0 l 1
 375 0 l 1
 375 325 l 1
 125 325 l 1
 125 0 l 1
 50 0 l 1
 50 600 l 1
 125 600 l 1
375 400 m 1
 375 525 l 1
 125 525 l 1
 125 400 l 1
 375 400 l 1
EndSplineSet
Validated: 1
EndChar

StartChar: Atilde
Encoding: 195 195 129
Width: 500
Flags: MW
LayerCount: 2
Fore
SplineSet
125 600 m 1
 450 600 l 1
 450 0 l 1
 375 0 l 1
 375 325 l 1
 125 325 l 1
 125 0 l 1
 50 0 l 1
 50 600 l 1
 125 600 l 1
375 400 m 1
 375 525 l 1
 125 525 l 1
 125 400 l 1
 375 400 l 1
90 745 m 1
 410 745 l 1
 450 745 l 1
 450 705 l 1
 450 650 l 1
 410 650 l 1
 410 705 l 1
 90 705 l 1
 50 705 l 1
 50 745 l 1
 50 800 l 1
 90 800 l 1
 90 745 l 1
EndSplineSet
Validated: 1
EndChar

StartChar: Adieresis
Encoding: 196 196 130
Width: 500
Flags: MW
LayerCount: 2
Fore
SplineSet
125 600 m 1
 450 600 l 1
 450 0 l 1
 375 0 l 1
 375 325 l 1
 125 325 l 1
 125 0 l 1
 50 0 l 1
 50 600 l 1
 125 600 l 1
375 400 m 1
 375 525 l 1
 125 525 l 1
 125 400 l 1
 375 400 l 1
160 650 m 1
 160 690 l 1
 200 690 l 1
 200 650 l 1
 160 650 l 1
300 650 m 1
 300 690 l 1
 340 690 l 1
 340 650 l 1
 300 650 l 1
EndSplineSet
Validated: 1
EndChar

StartChar: Aring
Encoding: 197 197 131
Width: 500
Flags: MW
LayerCount: 2
Fore
SplineSet
125 600 m 1
 450 600 l 1
 450 0 l 1
 375 0 l 1
 375 325 l 1
 125 325 l 1
 125 0 l 1
 50 0 l 1
 50 600 l 1
 125 600 l 1
375 400 m 1
 375 525 l 1
 125 525 l 1
 125 400 l 1
 375 400 l 1
175 690 m 1
 175 800 l 1
 325 800 l 1
 325 650 l 1
 175 650 l 1
 175 690 l 1
285 760 m 1
 215 760 l 1
 215 690 l 1
 285 690 l 1
 285 760 l 1
EndSplineSet
Validated: 1
EndChar

StartChar: AE
Encoding: 198 198 132
Width: 800
Flags: MW
LayerCount: 2
Fore
SplineSet
437.5 600 m 1
 750 600 l 1
 750 525 l 1
 437.5 525 l 1
 437.5 400 l 1
 750 400 l 1
 750 325 l 1
 437.5 325 l 1
 437.5 75 l 1
 750 75 l 1
 750 0 l 1
 362.5 0 l 1
 362.5 325 l 1
 125 325 l 1
 125 0 l 1
 50 0 l 1
 50 600 l 1
 437.5 600 l 1
362.5 400 m 1
 362.5 525 l 1
 125 525 l 1
 125 400 l 1
 362.5 400 l 1
EndSplineSet
Validated: 1
EndChar

StartChar: Ccedilla
Encoding: 199 199 133
Width: 500
Flags: MW
LayerCount: 2
Fore
SplineSet
50 600 m 1
 125 600 l 1
 450 600 l 1
 450 525 l 1
 125 525 l 1
 125 75 l 1
 450 75 l 1
 450 0 l 1
 275 0 l 1
 275 -100 l 1
 225 -100 l 1
 225 0 l 1
 125 0 l 1
 50 0 l 1
 50 75 l 1
 50 525 l 1
 50 600 l 1
EndSplineSet
Validated: 1
EndChar

StartChar: Egrave
Encoding: 200 200 134
Width: 500
Flags: MW
LayerCount: 2
Fore
SplineSet
450 0 m 1
 125 0 l 1
 50 0 l 1
 50 75 l 1
 50 325 l 1
 50 400 l 1
 50 525 l 1
 50 600 l 1
 125 600 l 1
 450 600 l 1
 450 525 l 1
 125 525 l 1
 125 400 l 1
 450 400 l 1
 450 325 l 1
 125 325 l 1
 125 75 l 1
 450 75 l 1
 450 0 l 1
260 650 m 1
 200 800 l 1
 240 800 l 1
 300 650 l 1
 260 650 l 1
EndSplineSet
Validated: 1
EndChar

StartChar: Eacute
Encoding: 201 201 135
Width: 500
Flags: MW
LayerCount: 2
Fore
SplineSet
50 600 m 1
 125 600 l 1
 450 600 l 1
 450 525 l 1
 125 525 l 1
 125 400 l 1
 450 400 l 1
 450 325 l 1
 125 325 l 1
 125 75 l 1
 450 75 l 1
 450 0 l 1
 125 0 l 1
 50 0 l 1
 50 75 l 1
 50 325 l 1
 50 400 l 1
 50 525 l 1
 50 600 l 1
260 800 m 1
 300 800 l 1
 240 650 l 1
 200 650 l 1
 260 800 l 1
EndSplineSet
Validated: 1
EndChar

StartChar: Ecircumflex
Encoding: 202 202 136
Width: 500
Flags: MW
LayerCount: 2
Fore
SplineSet
50 600 m 1
 125 600 l 1
 450 600 l 1
 450 525 l 1
 125 525 l 1
 125 400 l 1
 450 400 l 1
 450 325 l 1
 125 325 l 1
 125 75 l 1
 450 75 l 1
 450 0 l 1
 125 0 l 1
 50 0 l 1
 50 75 l 1
 50 325 l 1
 50 400 l 1
 50 525 l 1
 50 600 l 1
400 650 m 1
 250 760 l 1
 100 650 l 1
 100 690 l 1
 250 800 l 1
 400 690 l 1
 400 650 l 1
EndSplineSet
Validated: 1
EndChar

StartChar: Edieresis
Encoding: 203 203 137
Width: 500
Flags: MW
LayerCount: 2
Fore
SplineSet
50 600 m 1
 125 600 l 1
 450 600 l 1
 450 525 l 1
 125 525 l 1
 125 400 l 1
 450 400 l 1
 450 325 l 1
 125 325 l 1
 125 75 l 1
 450 75 l 1
 450 0 l 1
 125 0 l 1
 50 0 l 1
 50 75 l 1
 50 325 l 1
 50 400 l 1
 50 525 l 1
 50 600 l 1
160 650 m 1
 160 690 l 1
 200 690 l 1
 200 650 l 1
 160 650 l 1
300 650 m 1
 300 690 l 1
 340 690 l 1
 340 650 l 1
 300 650 l 1
EndSplineSet
Validated: 1
EndChar

StartChar: Igrave
Encoding: 204 204 138
Width: 400
Flags: MW
LayerCount: 2
Fore
SplineSet
50 75 m 1
 162.5 75 l 1
 162.5 525 l 1
 50 525 l 1
 50 600 l 1
 162.5 600 l 1
 237.5 600 l 1
 350 600 l 1
 350 525 l 1
 237.5 525 l 1
 237.5 75 l 1
 350 75 l 1
 350 0 l 1
 237.5 0 l 1
 162.5 0 l 1
 50 0 l 1
 50 75 l 1
250 650 m 1
 210 650 l 1
 150 800 l 1
 190 800 l 1
 250 650 l 1
EndSplineSet
Validated: 1
EndChar

StartChar: Iacute
Encoding: 205 205 139
Width: 400
Flags: MW
LayerCount: 2
Fore
SplineSet
50 75 m 1
 162.5 75 l 1
 162.5 525 l 1
 50 525 l 1
 50 600 l 1
 162.5 600 l 1
 237.5 600 l 1
 350 600 l 1
 350 525 l 1
 237.5 525 l 1
 237.5 75 l 1
 350 75 l 1
 350 0 l 1
 237.5 0 l 1
 162.5 0 l 1
 50 0 l 1
 50 75 l 1
250 800 m 1
 190 650 l 1
 150 650 l 1
 210 800 l 1
 250 800 l 1
EndSplineSet
Validated: 1
EndChar

StartChar: Icircumflex
Encoding: 206 206 140
Width: 400
Flags: MW
LayerCount: 2
Fore
SplineSet
50 75 m 1
 162.5 75 l 1
 162.5 525 l 1
 50 525 l 1
 50 600 l 1
 162.5 600 l 1
 237.5 600 l 1
 350 600 l 1
 350 525 l 1
 237.5 525 l 1
 237.5 75 l 1
 350 75 l 1
 350 0 l 1
 237.5 0 l 1
 162.5 0 l 1
 50 0 l 1
 50 75 l 1
350 650 m 1
 200 760 l 1
 50 650 l 1
 50 690 l 1
 200 800 l 1
 350 690 l 1
 350 650 l 1
EndSplineSet
Validated: 1
EndChar

StartChar: Idieresis
Encoding: 207 207 141
Width: 400
Flags: MW
LayerCount: 2
Fore
SplineSet
50 75 m 1
 162.5 75 l 1
 162.5 525 l 1
 50 525 l 1
 50 600 l 1
 162.5 600 l 1
 237.5 600 l 1
 350 600 l 1
 350 525 l 1
 237.5 525 l 1
 237.5 75 l 1
 350 75 l 1
 350 0 l 1
 237.5 0 l 1
 162.5 0 l 1
 50 0 l 1
 50 75 l 1
110 650 m 1
 110 690 l 1
 150 690 l 1
 150 650 l 1
 110 650 l 1
250 650 m 1
 250 690 l 1
 290 690 l 1
 290 650 l 1
 250 650 l 1
EndSplineSet
Validated: 1
EndChar

StartChar: Eth
Encoding: 208 208 142
Width: 600
Flags: MW
LayerCount: 2
Fore
SplineSet
225 600 m 1
 550 600 l 1
 550 0 l 1
 50 0 l 1
 50 75 l 1
 150 75 l 1
 150 325 l 1
 50 325 l 1
 50 400 l 1
 150 400 l 1
 150 525 l 1
 50 525 l 1
 50 600 l 1
 225 600 l 1
475 75 m 1
 475 525 l 1
 225 525 l 1
 225 400 l 1
 350 400 l 1
 350 325 l 1
 225 325 l 1
 225 75 l 1
 475 75 l 1
EndSplineSet
Validated: 1
EndChar

StartChar: Ntilde
Encoding: 209 209 143
Width: 500
Flags: MW
LayerCount: 2
Fore
SplineSet
375 400 m 1
 375 600 l 1
 450 600 l 1
 450 0 l 1
 375 0 l 1
 375 325 l 1
 125 478.849609375 l 1
 125 0 l 1
 50 0 l 1
 50 525 l 1
 50 600 l 1
 125 600 l 1
 125 553.849609375 l 1
 375 400 l 1
90 745 m 1
 410 745 l 1
 450 745 l 1
 450 705 l 1
 450 650 l 1
 410 650 l 1
 410 705 l 1
 90 705 l 1
 50 705 l 1
 50 745 l 1
 50 800 l 1
 90 800 l 1
 90 745 l 1
EndSplineSet
Validated: 1
EndChar

StartChar: Ograve
Encoding: 210 210 144
Width: 500
Flags: MW
LayerCount: 2
Fore
SplineSet
375 0 m 1
 50 0 l 1
 50 600 l 1
 450 600 l 1
 450 0 l 1
 375 0 l 1
125 525 m 1
 125 75 l 1
 375 75 l 1
 375 525 l 1
 125 525 l 1
260 650 m 1
 200 800 l 1
 240 800 l 1
 300 650 l 1
 260 650 l 1
EndSplineSet
Validated: 1
EndChar

StartChar: Oacute
Encoding: 211 211 145
Width: 500
Flags: MW
LayerCount: 2
Fore
SplineSet
125 600 m 1
 450 600 l 1
 450 0 l 1
 50 0 l 1
 50 600 l 1
 125 600 l 1
375 75 m 1
 375 525 l 1
 125 525 l 1
 125 75 l 1
 375 75 l 1
260 800 m 1
 300 800 l 1
 240 650 l 1
 200 650 l 1
 260 800 l 1
EndSplineSet
Validated: 1
EndChar

StartChar: Ocircumflex
Encoding: 212 212 146
Width: 500
Flags: MW
LayerCount: 2
Fore
SplineSet
125 600 m 1
 450 600 l 1
 450 0 l 1
 50 0 l 1
 50 600 l 1
 125 600 l 1
375 75 m 1
 375 525 l 1
 125 525 l 1
 125 75 l 1
 375 75 l 1
400 650 m 1
 250 760 l 1
 100 650 l 1
 100 690 l 1
 250 800 l 1
 400 690 l 1
 400 650 l 1
EndSplineSet
Validated: 1
EndChar

StartChar: Otilde
Encoding: 213 213 147
Width: 500
Flags: MW
LayerCount: 2
Fore
SplineSet
125 600 m 1
 450 600 l 1
 450 0 l 1
 50 0 l 1
 50 600 l 1
 125 600 l 1
375 75 m 1
 375 525 l 1
 125 525 l 1
 125 75 l 1
 375 75 l 1
90 745 m 1
 410 745 l 1
 450 745 l 1
 450 705 l 1
 450 650 l 1
 410 650 l 1
 410 705 l 1
 90 705 l 1
 50 705 l 1
 50 745 l 1
 50 800 l 1
 90 800 l 1
 90 745 l 1
EndSplineSet
Validated: 1
EndChar

StartChar: Odieresis
Encoding: 214 214 148
Width: 500
Flags: MW
LayerCount: 2
Fore
SplineSet
125 600 m 1
 450 600 l 1
 450 0 l 1
 50 0 l 1
 50 600 l 1
 125 600 l 1
375 75 m 1
 375 525 l 1
 125 525 l 1
 125 75 l 1
 375 75 l 1
160 650 m 1
 160 690 l 1
 200 690 l 1
 200 650 l 1
 160 650 l 1
300 650 m 1
 300 690 l 1
 340 690 l 1
 340 650 l 1
 300 650 l 1
EndSplineSet
Validated: 1
EndChar

StartChar: multiply
Encoding: 215 215 149
Width: 400
Flags: MW
LayerCount: 2
Fore
SplineSet
125 100 m 1
 50 100 l 1
 162.5 250 l 1
 50 400 l 1
 125 400 l 1
 200 300 l 1
 275 400 l 1
 350 400 l 1
 237.5 250 l 1
 350 100 l 1
 275 100 l 1
 200 200 l 1
 125 100 l 1
EndSplineSet
Validated: 1
EndChar

StartChar: Oslash
Encoding: 216 216 150
Width: 500
Flags: MW
LayerCount: 2
Fore
SplineSet
125 600 m 1
 450 600 l 1
 450 0 l 1
 50 0 l 1
 50 600 l 1
 125 600 l 1
334.379882812 525 m 1
 125 525 l 1
 125 138.459960938 l 1
 334.379882812 525 l 1
165.629882812 75 m 1
 375 75 l 1
 375 461.540039062 l 1
 165.629882812 75 l 1
EndSplineSet
Validated: 1
EndChar

StartChar: Ugrave
Encoding: 217 217 151
Width: 500
Flags: MW
LayerCount: 2
Fore
SplineSet
200 800 m 1
 240 800 l 1
 300 650 l 1
 260 650 l 1
 200 800 l 1
375 75 m 1
 375 600 l 1
 450 600 l 1
 450 75 l 1
 450 0 l 1
 375 0 l 1
 125 0 l 1
 50 0 l 1
 50 75 l 1
 50 600 l 1
 125 600 l 1
 125 75 l 1
 375 75 l 1
EndSplineSet
Validated: 1
EndChar

StartChar: Uacute
Encoding: 218 218 152
Width: 500
Flags: MW
LayerCount: 2
Fore
SplineSet
260 800 m 1
 300 800 l 1
 240 650 l 1
 200 650 l 1
 260 800 l 1
375 75 m 1
 375 600 l 1
 450 600 l 1
 450 75 l 1
 450 0 l 1
 375 0 l 1
 125 0 l 1
 50 0 l 1
 50 75 l 1
 50 600 l 1
 125 600 l 1
 125 75 l 1
 375 75 l 1
EndSplineSet
Validated: 1
EndChar

StartChar: Ucircumflex
Encoding: 219 219 153
Width: 500
Flags: MW
LayerCount: 2
Fore
SplineSet
400 650 m 1
 250 760 l 1
 100 650 l 1
 100 690 l 1
 250 800 l 1
 400 690 l 1
 400 650 l 1
375 75 m 1
 375 600 l 1
 450 600 l 1
 450 75 l 1
 450 0 l 1
 375 0 l 1
 125 0 l 1
 50 0 l 1
 50 75 l 1
 50 600 l 1
 125 600 l 1
 125 75 l 1
 375 75 l 1
EndSplineSet
Validated: 1
EndChar

StartChar: Udieresis
Encoding: 220 220 154
Width: 500
Flags: MW
LayerCount: 2
Fore
SplineSet
152.940429688 650 m 1
 152.940429688 690 l 1
 192.940429688 690 l 1
 192.940429688 650 l 1
 152.940429688 650 l 1
292.940429688 650 m 1
 292.940429688 690 l 1
 332.940429688 690 l 1
 332.940429688 650 l 1
 292.940429688 650 l 1
375 0 m 1
 125 0 l 1
 50 0 l 1
 50 75 l 1
 50 600 l 1
 125 600 l 1
 125 75 l 1
 375 75 l 1
 375 600 l 1
 450 600 l 1
 450 75 l 1
 450 0 l 1
 375 0 l 1
EndSplineSet
Validated: 1
EndChar

StartChar: Yacute
Encoding: 221 221 155
Width: 500
Flags: MW
LayerCount: 2
Fore
SplineSet
375 400 m 1
 375 600 l 1
 450 600 l 1
 450 400 l 1
 450 325 l 1
 375 325 l 1
 287.5 325 l 1
 287.5 0 l 1
 212.5 0 l 1
 212.5 325 l 1
 125 325 l 1
 50 325 l 1
 50 400 l 1
 50 600 l 1
 125 600 l 1
 125 400 l 1
 212.5 400 l 1
 287.5 400 l 1
 375 400 l 1
300 800 m 1
 240 650 l 1
 200 650 l 1
 260 800 l 1
 300 800 l 1
EndSplineSet
Validated: 1
EndChar

StartChar: Thorn
Encoding: 222 222 156
Width: 500
Flags: MW
LayerCount: 2
Fore
SplineSet
125 500 m 1
 450 500 l 1
 450 100 l 1
 125 100 l 1
 125 0 l 1
 50 0 l 1
 50 600 l 1
 125 600 l 1
 125 500 l 1
375 175 m 1
 375 425 l 1
 125 425 l 1
 125 175 l 1
 375 175 l 1
EndSplineSet
Validated: 1
EndChar

StartChar: germandbls
Encoding: 223 223 157
Width: 500
Flags: MW
LayerCount: 2
Fore
SplineSet
350 400 m 1
 375 400 l 1
 450 400 l 1
 450 325 l 1
 450 75 l 1
 450 0 l 1
 375 0 l 1
 200 0 l 1
 200 75 l 1
 375 75 l 1
 375 325 l 1
 350 325 l 1
 275 325 l 1
 200 325 l 1
 200 400 l 1
 275 400 l 1
 275 525 l 1
 125 525 l 1
 125 0 l 1
 50 0 l 1
 50 525 l 1
 50 600 l 1
 125 600 l 1
 275 600 l 1
 350 600 l 1
 350 525 l 1
 350 400 l 1
EndSplineSet
Validated: 1
EndChar

StartChar: agrave
Encoding: 224 224 158
Width: 500
Flags: MW
LayerCount: 2
Fore
SplineSet
50 400 m 1
 450 400 l 1
 450 0 l 1
 50 0 l 1
 50 237.5 l 1
 375 237.5 l 1
 375 325 l 1
 50 325 l 1
 50 400 l 1
375 75 m 1
 375 162.5 l 1
 125 162.5 l 1
 125 75 l 1
 375 75 l 1
240 600 m 1
 300 450 l 1
 260 450 l 1
 200 600 l 1
 240 600 l 1
EndSplineSet
Validated: 1
EndChar

StartChar: aacute
Encoding: 225 225 159
Width: 500
Flags: MW
LayerCount: 2
Fore
SplineSet
50 400 m 1
 450 400 l 1
 450 0 l 1
 50 0 l 1
 50 237.5 l 1
 375 237.5 l 1
 375 325 l 1
 50 325 l 1
 50 400 l 1
375 75 m 1
 375 162.5 l 1
 125 162.5 l 1
 125 75 l 1
 375 75 l 1
240 450 m 1
 200 450 l 1
 260 600 l 1
 300 600 l 1
 240 450 l 1
EndSplineSet
Validated: 1
EndChar

StartChar: acircumflex
Encoding: 226 226 160
Width: 500
Flags: MW
LayerCount: 2
Fore
SplineSet
50 400 m 1
 450 400 l 1
 450 0 l 1
 50 0 l 1
 50 237.5 l 1
 375 237.5 l 1
 375 325 l 1
 50 325 l 1
 50 400 l 1
375 75 m 1
 375 162.5 l 1
 125 162.5 l 1
 125 75 l 1
 375 75 l 1
400 490 m 1
 400 450 l 1
 250 560 l 1
 100 450 l 1
 100 490 l 1
 250 600 l 1
 400 490 l 1
EndSplineSet
Validated: 1
EndChar

StartChar: atilde
Encoding: 227 227 161
Width: 500
Flags: MW
LayerCount: 2
Fore
SplineSet
50 400 m 1
 450 400 l 1
 450 0 l 1
 50 0 l 1
 50 237.5 l 1
 375 237.5 l 1
 375 325 l 1
 50 325 l 1
 50 400 l 1
375 75 m 1
 375 162.5 l 1
 125 162.5 l 1
 125 75 l 1
 375 75 l 1
90 545 m 1
 410 545 l 1
 450 545 l 1
 450 505 l 1
 450 450 l 1
 410 450 l 1
 410 505 l 1
 90 505 l 1
 50 505 l 1
 50 545 l 1
 50 600 l 1
 90 600 l 1
 90 545 l 1
EndSplineSet
Validated: 1
EndChar

StartChar: adieresis
Encoding: 228 228 162
Width: 500
Flags: MW
LayerCount: 2
Fore
SplineSet
50 400 m 1
 450 400 l 1
 450 0 l 1
 50 0 l 1
 50 237.5 l 1
 375 237.5 l 1
 375 325 l 1
 50 325 l 1
 50 400 l 1
375 75 m 1
 375 162.5 l 1
 125 162.5 l 1
 125 75 l 1
 375 75 l 1
160 450 m 1
 160 490 l 1
 200 490 l 1
 200 450 l 1
 160 450 l 1
300 450 m 1
 300 490 l 1
 340 490 l 1
 340 450 l 1
 300 450 l 1
EndSplineSet
Validated: 1
EndChar

StartChar: aring
Encoding: 229 229 163
Width: 500
Flags: MW
LayerCount: 2
Fore
SplineSet
50 400 m 1
 450 400 l 1
 450 0 l 1
 50 0 l 1
 50 237.5 l 1
 375 237.5 l 1
 375 325 l 1
 50 325 l 1
 50 400 l 1
375 75 m 1
 375 162.5 l 1
 125 162.5 l 1
 125 75 l 1
 375 75 l 1
325 450 m 1
 175 450 l 1
 175 600 l 1
 325 600 l 1
 325 450 l 1
215 490 m 1
 285 490 l 1
 285 560 l 1
 215 560 l 1
 215 490 l 1
EndSplineSet
Validated: 1
EndChar

StartChar: ae
Encoding: 230 230 164
Width: 850
Flags: MW
LayerCount: 2
Fore
SplineSet
712.5 400 m 1
 787.5 400 l 1
 787.5 162.5 l 1
 462.5 162.5 l 1
 462.5 75 l 1
 787.5 75 l 1
 787.5 0 l 1
 62.5 0 l 1
 62.5 237.5 l 1
 387.5 237.5 l 1
 387.5 325 l 1
 62.5 325 l 1
 62.5 400 l 1
 712.5 400 l 1
387.5 75 m 1
 387.5 162.5 l 1
 137.5 162.5 l 1
 137.5 75 l 1
 387.5 75 l 1
712.5 237.5 m 1
 712.5 325 l 1
 462.5 325 l 1
 462.5 237.5 l 1
 712.5 237.5 l 1
EndSplineSet
Validated: 1
EndChar

StartChar: ccedilla
Encoding: 231 231 165
Width: 500
Flags: MW
LayerCount: 2
Fore
SplineSet
50 400 m 1
 125 400 l 1
 450 400 l 1
 450 325 l 1
 125 325 l 1
 125 75 l 1
 450 75 l 1
 450 0 l 1
 270 0 l 1
 270 -100 l 1
 230 -100 l 1
 230 0 l 1
 125 0 l 1
 50 0 l 1
 50 75 l 1
 50 325 l 1
 50 400 l 1
EndSplineSet
Validated: 1
EndChar

StartChar: egrave
Encoding: 232 232 166
Width: 500
Flags: MW
LayerCount: 2
Fore
SplineSet
125 400 m 1
 450 400 l 1
 450 162.5 l 1
 125 162.5 l 1
 125 75 l 1
 450 75 l 1
 450 0 l 1
 50 0 l 1
 50 400 l 1
 125 400 l 1
375 237.5 m 1
 375 325 l 1
 125 325 l 1
 125 237.5 l 1
 375 237.5 l 1
240 600 m 1
 300 450 l 1
 260 450 l 1
 200 600 l 1
 240 600 l 1
EndSplineSet
Validated: 1
EndChar

StartChar: eacute
Encoding: 233 233 167
Width: 500
Flags: MW
LayerCount: 2
Fore
SplineSet
125 400 m 1
 450 400 l 1
 450 162.5 l 1
 125 162.5 l 1
 125 75 l 1
 450 75 l 1
 450 0 l 1
 50 0 l 1
 50 400 l 1
 125 400 l 1
375 237.5 m 1
 375 325 l 1
 125 325 l 1
 125 237.5 l 1
 375 237.5 l 1
260 600 m 1
 300 600 l 1
 240 450 l 1
 200 450 l 1
 260 600 l 1
EndSplineSet
Validated: 1
EndChar

StartChar: ecircumflex
Encoding: 234 234 168
Width: 500
Flags: MW
LayerCount: 2
Fore
SplineSet
125 400 m 1
 450 400 l 1
 450 162.5 l 1
 125 162.5 l 1
 125 75 l 1
 450 75 l 1
 450 0 l 1
 50 0 l 1
 50 400 l 1
 125 400 l 1
375 237.5 m 1
 375 325 l 1
 125 325 l 1
 125 237.5 l 1
 375 237.5 l 1
400 450 m 1
 250 560 l 1
 100 450 l 1
 100 490 l 1
 250 600 l 1
 400 490 l 1
 400 450 l 1
EndSplineSet
Validated: 1
EndChar

StartChar: edieresis
Encoding: 235 235 169
Width: 500
Flags: HMW
LayerCount: 2
Fore
SplineSet
125 400 m 1
 450 400 l 1
 450 162.5 l 1
 125 162.5 l 1
 125 75 l 1
 450 75 l 1
 450 0 l 1
 50 0 l 1
 50 400 l 1
 125 400 l 1
375 237.5 m 1
 375 325 l 1
 125 325 l 1
 125 237.5 l 1
 375 237.5 l 1
160 450 m 1
 160 490 l 1
 200 490 l 1
 200 450 l 1
 160 450 l 1
300 450 m 1
 300 490 l 1
 340 490 l 1
 340 450 l 1
 300 450 l 1
EndSplineSet
Validated: 1
EndChar

StartChar: igrave
Encoding: 236 236 170
Width: 200
Flags: HMW
LayerCount: 2
Fore
SplineSet
62.5 0 m 1
 62.5 400 l 1
 137.5 400 l 1
 137.5 0 l 1
 62.5 0 l 1
50 600 m 1
 90 600 l 1
 150 450 l 1
 110 450 l 1
 50 600 l 1
EndSplineSet
Validated: 1
EndChar

StartChar: iacute
Encoding: 237 237 171
Width: 200
Flags: HMW
LayerCount: 2
Fore
SplineSet
62.5 0 m 1
 62.5 400 l 1
 137.5 400 l 1
 137.5 0 l 1
 62.5 0 l 1
110 600 m 1
 150 600 l 1
 90 450 l 1
 50 450 l 1
 110 600 l 1
EndSplineSet
Validated: 1
EndChar

StartChar: icircumflex
Encoding: 238 238 172
Width: 300
Flags: HMW
LayerCount: 2
Fore
SplineSet
112.5 0 m 1
 112.5 400 l 1
 187.5 400 l 1
 187.5 0 l 1
 112.5 0 l 1
300 490 m 1
 300 450 l 1
 150 560 l 1
 0 450 l 1
 0 490 l 1
 150 600 l 1
 300 490 l 1
EndSplineSet
Validated: 1
EndChar

StartChar: idieresis
Encoding: 239 239 173
Width: 300
Flags: HMW
LayerCount: 2
Fore
SplineSet
112.5 0 m 1
 112.5 400 l 1
 187.5 400 l 1
 187.5 0 l 1
 112.5 0 l 1
60 450 m 1
 60 490 l 1
 100 490 l 1
 100 450 l 1
 60 450 l 1
200 450 m 1
 200 490 l 1
 240 490 l 1
 240 450 l 1
 200 450 l 1
EndSplineSet
Validated: 1
EndChar

StartChar: eth
Encoding: 240 240 174
Width: 600
Flags: HMW
LayerCount: 2
Fore
SplineSet
450 600 m 1
 450 537.5 l 1
 550 537.5 l 1
 550 462.5 l 1
 450 462.5 l 1
 450 0 l 1
 50 0 l 1
 50 400 l 1
 375 400 l 1
 375 462.5 l 1
 250 462.5 l 1
 250 537.5 l 1
 375 537.5 l 1
 375 600 l 1
 450 600 l 1
375 75 m 1
 375 325 l 1
 125 325 l 1
 125 75 l 1
 375 75 l 1
EndSplineSet
Validated: 1
EndChar

StartChar: ntilde
Encoding: 241 241 175
Width: 500
Flags: HMW
LayerCount: 2
Fore
SplineSet
90 545 m 1
 410 545 l 1
 450 545 l 1
 450 505 l 1
 450 450 l 1
 410 450 l 1
 410 505 l 1
 90 505 l 1
 50 505 l 1
 50 545 l 1
 50 600 l 1
 90 600 l 1
 90 545 l 1
125 400 m 1
 375 400 l 1
 450 400 l 1
 450 325 l 1
 450 0 l 1
 375 0 l 1
 375 325 l 1
 125 325 l 1
 125 0 l 1
 50 0 l 1
 50 325 l 1
 50 400 l 1
 125 400 l 1
EndSplineSet
Validated: 1
EndChar

StartChar: ograve
Encoding: 242 242 176
Width: 500
Flags: HMW
LayerCount: 2
Fore
SplineSet
240 600 m 1
 300 450 l 1
 260 450 l 1
 200 600 l 1
 240 600 l 1
125 400 m 1
 450 400 l 1
 450 0 l 1
 50 0 l 1
 50 400 l 1
 125 400 l 1
375 75 m 1
 375 325 l 1
 125 325 l 1
 125 75 l 1
 375 75 l 1
EndSplineSet
Validated: 1
EndChar

StartChar: oacute
Encoding: 243 243 177
Width: 500
Flags: HMW
LayerCount: 2
Fore
SplineSet
260 600 m 1
 300 600 l 1
 240 450 l 1
 200 450 l 1
 260 600 l 1
125 400 m 1
 450 400 l 1
 450 0 l 1
 50 0 l 1
 50 400 l 1
 125 400 l 1
375 75 m 1
 375 325 l 1
 125 325 l 1
 125 75 l 1
 375 75 l 1
EndSplineSet
Validated: 1
EndChar

StartChar: ocircumflex
Encoding: 244 244 178
Width: 500
Flags: HMW
LayerCount: 2
Fore
SplineSet
400 450 m 1
 250 560 l 1
 100 450 l 1
 100 490 l 1
 250 600 l 1
 400 490 l 1
 400 450 l 1
125 400 m 1
 450 400 l 1
 450 0 l 1
 50 0 l 1
 50 400 l 1
 125 400 l 1
375 75 m 1
 375 325 l 1
 125 325 l 1
 125 75 l 1
 375 75 l 1
EndSplineSet
Validated: 1
EndChar

StartChar: otilde
Encoding: 245 245 179
Width: 500
Flags: HMW
LayerCount: 2
Fore
SplineSet
90 545 m 1
 410 545 l 1
 450 545 l 1
 450 505 l 1
 450 450 l 1
 410 450 l 1
 410 505 l 1
 90 505 l 1
 50 505 l 1
 50 545 l 1
 50 600 l 1
 90 600 l 1
 90 545 l 1
125 400 m 1
 450 400 l 1
 450 0 l 1
 50 0 l 1
 50 400 l 1
 125 400 l 1
375 75 m 1
 375 325 l 1
 125 325 l 1
 125 75 l 1
 375 75 l 1
EndSplineSet
Validated: 1
EndChar

StartChar: odieresis
Encoding: 246 246 180
Width: 500
Flags: HMW
LayerCount: 2
Fore
SplineSet
160 450 m 1
 160 490 l 1
 200 490 l 1
 200 450 l 1
 160 450 l 1
300 450 m 1
 300 490 l 1
 340 490 l 1
 340 450 l 1
 300 450 l 1
125 400 m 1
 450 400 l 1
 450 0 l 1
 50 0 l 1
 50 400 l 1
 125 400 l 1
375 75 m 1
 375 325 l 1
 125 325 l 1
 125 75 l 1
 375 75 l 1
EndSplineSet
Validated: 1
EndChar

StartChar: divide
Encoding: 247 247 181
Width: 400
Flags: HMW
LayerCount: 2
Fore
SplineSet
162.5 325 m 1
 162.5 400 l 1
 237.5 400 l 1
 237.5 325 l 1
 162.5 325 l 1
162.5 100 m 1
 162.5 175 l 1
 237.5 175 l 1
 237.5 100 l 1
 162.5 100 l 1
50 212.5 m 1
 50 287.5 l 1
 350 287.5 l 1
 350 212.5 l 1
 50 212.5 l 1
EndSplineSet
Validated: 1
EndChar

StartChar: oslash
Encoding: 248 248 182
Width: 500
Flags: HMW
LayerCount: 2
Fore
SplineSet
125 400 m 1
 450 400 l 1
 450 0 l 1
 50 0 l 1
 50 400 l 1
 125 400 l 1
314.059570312 325 m 1
 125 325 l 1
 125 92.3095703125 l 1
 314.059570312 325 l 1
185.940429688 75 m 1
 375 75 l 1
 375 307.690429688 l 1
 185.940429688 75 l 1
EndSplineSet
Validated: 1
EndChar

StartChar: ugrave
Encoding: 249 249 183
Width: 500
Flags: HMW
LayerCount: 2
Fore
SplineSet
375 75 m 1
 375 400 l 1
 450 400 l 1
 450 75 l 1
 450 0 l 1
 375 0 l 1
 125 0 l 1
 50 0 l 1
 50 75 l 1
 50 400 l 1
 125 400 l 1
 125 75 l 1
 375 75 l 1
260 450 m 1
 200 600 l 1
 240 600 l 1
 300 450 l 1
 260 450 l 1
EndSplineSet
Validated: 1
EndChar

StartChar: uacute
Encoding: 250 250 184
Width: 500
Flags: HMW
LayerCount: 2
Fore
SplineSet
375 75 m 1
 375 400 l 1
 450 400 l 1
 450 75 l 1
 450 0 l 1
 375 0 l 1
 125 0 l 1
 50 0 l 1
 50 75 l 1
 50 400 l 1
 125 400 l 1
 125 75 l 1
 375 75 l 1
260 600 m 1
 300 600 l 1
 240 450 l 1
 200 450 l 1
 260 600 l 1
EndSplineSet
Validated: 1
EndChar

StartChar: ucircumflex
Encoding: 251 251 185
Width: 500
Flags: HMW
LayerCount: 2
Fore
SplineSet
375 75 m 1
 375 400 l 1
 450 400 l 1
 450 75 l 1
 450 0 l 1
 375 0 l 1
 125 0 l 1
 50 0 l 1
 50 75 l 1
 50 400 l 1
 125 400 l 1
 125 75 l 1
 375 75 l 1
400 450 m 1
 250 560 l 1
 100 450 l 1
 100 490 l 1
 250 600 l 1
 400 490 l 1
 400 450 l 1
EndSplineSet
Validated: 1
EndChar

StartChar: udieresis
Encoding: 252 252 186
Width: 500
Flags: HMW
LayerCount: 2
Fore
SplineSet
375 75 m 1
 375 400 l 1
 450 400 l 1
 450 75 l 1
 450 0 l 1
 375 0 l 1
 125 0 l 1
 50 0 l 1
 50 75 l 1
 50 400 l 1
 125 400 l 1
 125 75 l 1
 375 75 l 1
160 450 m 1
 160 490 l 1
 200 490 l 1
 200 450 l 1
 160 450 l 1
300 450 m 1
 300 490 l 1
 340 490 l 1
 340 450 l 1
 300 450 l 1
EndSplineSet
Validated: 1
EndChar

StartChar: yacute
Encoding: 253 253 187
Width: 500
Flags: HMW
LayerCount: 2
Fore
SplineSet
375 75 m 1
 375 400 l 1
 450 400 l 1
 450 75 l 1
 450 0 l 1
 450 -125 l 1
 450 -200 l 1
 375 -200 l 1
 50 -200 l 1
 50 -125 l 1
 375 -125 l 1
 375 0 l 1
 125 0 l 1
 50 0 l 1
 50 75 l 1
 50 400 l 1
 125 400 l 1
 125 75 l 1
 375 75 l 1
260 600 m 1
 300 600 l 1
 240 450 l 1
 200 450 l 1
 260 600 l 1
EndSplineSet
Validated: 1
EndChar

StartChar: thorn
Encoding: 254 254 188
Width: 500
Flags: HMW
LayerCount: 2
Fore
SplineSet
125 400 m 1
 450 400 l 1
 450 0 l 1
 125 0 l 1
 125 -200 l 1
 50 -200 l 1
 50 600 l 1
 125 600 l 1
 125 400 l 1
375 75 m 1
 375 325 l 1
 125 325 l 1
 125 75 l 1
 375 75 l 1
EndSplineSet
Validated: 1
EndChar

StartChar: ydieresis
Encoding: 255 255 189
Width: 500
Flags: HMW
LayerCount: 2
Fore
SplineSet
375 75 m 1
 375 400 l 1
 450 400 l 1
 450 75 l 1
 450 0 l 1
 450 -125 l 1
 450 -200 l 1
 375 -200 l 1
 50 -200 l 1
 50 -125 l 1
 375 -125 l 1
 375 0 l 1
 125 0 l 1
 50 0 l 1
 50 75 l 1
 50 400 l 1
 125 400 l 1
 125 75 l 1
 375 75 l 1
160 450 m 1
 160 490 l 1
 200 490 l 1
 200 450 l 1
 160 450 l 1
300 450 m 1
 300 490 l 1
 340 490 l 1
 340 450 l 1
 300 450 l 1
EndSplineSet
Validated: 1
EndChar
